<?xml version="1.0" encoding="UTF-8"?><svg id="a" xmlns="http://www.w3.org/2000/svg" viewBox="0 0 960 560"><defs><style>.b{fill:#a4a1c3;}.c{fill:none;isolation:isolate;}.d{fill:#1a1f1c;}</style></defs><rect class="b" width="960" height="560"/><path class="d" d="m585.05,237.35c-11.05,5.97-21.72,11.18-33.02,14.35-4.7,1.27-10.8,4.06-12.83-2.41-2.29-6.48,5.08-6.73,9.02-8,24.51-8,46.74-19.43,62.74-40,15.88-20.32,21.46-43.69,20.19-69.09-.38-6.48-3.05-9.91-10.41-9.91-20.32-.38-39.62,3.3-57.28,13.84-14.35,8.64-25.02,19.43-28.45,37.21-3.94,20.7-14.99,38.61-27.43,55.63-2.29,3.05-5.08,7.49-9.65,3.68-4.44-3.56-1.14-7.24,1.27-10.41,19.05-25.02,31.24-52.32,29.34-84.45-2.03-38.1-20.7-67.44-48.51-93.6-19.94,17.53-32.89,38.48-37.97,64.01-5.08,25.4-.89,49.53,11.56,72.14,1.9,3.56,3.3,7.24,5.21,11.05,1.52,3.17,1.52,6.22-1.9,8-3.56,2.03-5.97-.13-7.62-3.05-2.67-4.44-5.21-9.14-7.49-13.97-17.78-37.59-55.5-60.2-96.52-57.66-11.94.76-14.35,3.18-15.37,15.11-1.65,20.7,3.94,39.37,14.6,56.77,2.03,3.56,6.73,7.62,1.27,11.18-5.08,3.17-8-1.27-10.29-5.08-13.97-22.99-21.34-47.24-14.73-74.68,2.41-9.91,8-13.08,17.02-13.84,33.27-2.79,62.74,5.84,88.01,28.45,1.14,1.14,2.41,2.03,4.45,3.94-.13-13.21-1.14-25.53.89-38.1,5.08-29.72,20.57-52.83,42.04-73.03,4.45-4.32,8.76-4.06,13.08-.13,28.7,25.78,49.15,56.01,52.83,95.63.13,2.79.38,5.59,3.05,8,9.52-6.73,18.92-13.84,29.84-18.29,18.67-7.62,37.97-9.02,57.66-8,9.14.38,11.18,6.22,11.94,13.59,3.3,37.34-6.35,70.23-34.42,96.52-1.14,1.14-2.67,1.91-3.68,2.67,2.41,4.83,6.73,4.7,9.91,6.22,18.54,7.62,33.02,19.56,42.04,37.72,2.41,5.08,3.05,9.52-1.27,13.59-26.29,25.27-56.01,43.69-93.98,43.56-26.92-.13-48.9-12.83-68.71-29.85-13.21-11.43-25.78-23.5-39.24-34.54-44.58-37.21-95.12-24.89-131.83,10.67-5.59,5.46-1.52,8.76,1.65,12.57,26.92,31.62,66.67,41.4,105.66,26.16,6.73-2.67,12.83-5.97,19.18-9.4,3.3-1.65,6.73-3.18,9.14.76,2.67,4.32-.51,6.73-3.94,9.02-44.96,29.85-104.01,21.34-139.32-20.19-12.83-15.11-12.83-15.49,1.9-28.96,30.48-27.69,64.77-41.66,106.05-29.84,20.95,5.97,37.34,19.43,53.09,33.78,13.46,12.32,26.67,25.4,42.16,35.05,30.86,19.18,61.98,17.14,93.22,1.14,11.43-5.84,21.34-13.97,30.99-22.23,3.05-2.67,4.83-5.21,3.17-9.65-6.86-18.16-39.24-36.83-58.29-33.66Z"/><g class="c"><path class="d" d="m119.73,440.91c1.86-.05,3.19-.48,3.99-1.28.8-.8,1.25-1.74,1.36-2.83.11-1.09.16-2.99.16-5.7v-34.45c0-2.23.08-4.15.24-5.74l-5.74.32v-3.51h17.94v2.63c-1.86.05-3.19.48-3.99,1.28-.8.8-1.25,1.74-1.36,2.83-.11,1.09-.16,2.99-.16,5.7v13.08h5.98l9.97-15.71c1.97-2.98,3.85-5.21,5.66-6.7l-4.86.16v-3.27h17.15v2.63c-2.45.21-4.51.61-6.18,1.2-1.67.59-3.31,1.62-4.91,3.11-1.59,1.49-3.27,3.64-5.02,6.46l-7.82,12.44c1.17.75,2.18,1.55,3.03,2.43.85.88,1.61,1.75,2.27,2.63.66.88,1.1,1.45,1.32,1.71l8.93,11.88c1.97,2.61,3.6,4.52,4.9,5.74,1.3,1.22,2.43,2.02,3.39,2.39.96.37,2.1.56,3.43.56v2.63h-9.73c-1.38,0-4.07-2.6-8.06-7.82l-9.57-12.92c-1.28-1.65-2.38-3-3.31-4.07-.93-1.06-1.82-1.86-2.67-2.39l-3.91.08v17.62c0,2.82-.08,4.92-.24,6.3l5.74-.32v3.51h-17.94v-2.63Z"/><path class="d" d="m180.62,442.18c-2.05-1.75-3.07-4.04-3.07-6.86,0-3.08,1.24-5.69,3.71-7.82,2.47-2.13,5.58-3.71,9.33-4.75,3.75-1.04,7.51-1.53,11.29-1.47v-4.95c0-3.46-.51-6.15-1.52-8.09-1.01-1.94-3.16-2.91-6.46-2.91-1.65,0-3.22.35-4.71,1.04-1.49.69-2.58,1.73-3.27,3.11.69.75,1.04,1.75,1.04,3.03,0,.8-.29,1.56-.88,2.27-.59.72-1.44,1.08-2.55,1.08s-1.99-.36-2.63-1.08c-.64-.72-.96-1.66-.96-2.83,0-1.75.68-3.36,2.03-4.83,1.36-1.46,3.24-2.62,5.66-3.47,2.42-.85,5.12-1.28,8.09-1.28,4.47,0,7.76,1.18,9.89,3.55,2.13,2.37,3.16,6.1,3.11,11.21l-.08,17.94c0,1.7-.11,3.51-.32,5.42l5.66-.32v3.35h-11.4c-.16-.8-.35-2.31-.56-4.55-3.88,3.88-8.06,5.82-12.52,5.82-3.88,0-6.85-.88-8.89-2.63Zm16.23-3.07c1.65-.77,3.32-1.95,5.02-3.55-.05-.8-.08-2.15-.08-4.07l.08-7.5c-4.36.16-8.24,1.05-11.64,2.67-3.4,1.62-5.1,4.11-5.1,7.46,0,1.97.58,3.48,1.75,4.55,1.17,1.06,2.66,1.6,4.47,1.6,2.02,0,3.85-.39,5.5-1.16Z"/><path class="d" d="m224.53,441.14c1.54,0,2.64-.38,3.31-1.16.66-.77,1.06-1.75,1.2-2.95.13-1.2.2-3.07.2-5.62v-18.18c0-2.23.11-3.96.32-5.18l-5.66.24v-3.27h2.47c2.02,0,3.48-.17,4.39-.52.9-.34,1.75-.89,2.55-1.63h2.31c.21,2.07.35,4.71.4,7.9,1.33-2.18,3.23-4.12,5.7-5.82,2.47-1.7,5.04-2.55,7.7-2.55,1.6,0,2.92.43,3.99,1.28,1.06.85,1.6,2.1,1.6,3.75,0,.85-.33,1.7-1,2.55-.67.85-1.61,1.28-2.83,1.28s-2.13-.44-2.87-1.32c-.75-.88-1.04-1.93-.88-3.15-2.02-.05-4.06.72-6.1,2.31-2.05,1.6-3.79,3.72-5.22,6.38l.08,19.62c0,2.39-.11,4.2-.32,5.42l5.02-.24v3.27h-16.35v-2.39Z"/><path class="d" d="m272.9,442.22c-2.95-1.73-5.28-4.2-6.98-7.42-1.7-3.22-2.55-6.92-2.55-11.12,0-3.72.85-7.22,2.55-10.49,1.7-3.27,4.08-5.89,7.14-7.86,3.06-1.97,6.53-2.95,10.41-2.95,3.03,0,5.77.67,8.21,1.99,2.44,1.33,4.39,3.31,5.82,5.94s2.15,5.86,2.15,9.69l-28.07.48c-.05,6.38,1,11.35,3.15,14.91,2.15,3.56,5.49,5.34,10.01,5.34,2.45,0,4.96-.64,7.54-1.91,2.58-1.28,4.56-2.84,5.94-4.71l1.91,1.59c-2.02,3.08-4.64,5.37-7.86,6.86-3.22,1.49-6.37,2.23-9.45,2.23-3.67,0-6.98-.87-9.93-2.59Zm19.26-25.08c0-3.19-.72-5.93-2.15-8.21-1.44-2.29-3.59-3.43-6.46-3.43-6.59,0-10.5,3.88-11.72,11.64h20.34Z"/><path class="d" d="m311.78,441.14c1.54,0,2.64-.38,3.31-1.16.66-.77,1.05-1.73,1.16-2.87.11-1.14.19-3.04.24-5.7l.08-18.18c0-2.23.11-3.96.32-5.18l-5.66.32v-3.35c3.14,0,5.29-.17,6.46-.52,1.17-.34,2.15-.89,2.95-1.63h2.31c.11,1.01.21,2.63.32,4.87,1.81-1.6,3.87-2.88,6.18-3.87,2.31-.98,4.59-1.48,6.82-1.48,4.63,0,8,1.45,10.13,4.35,2.13,2.9,3.19,7.4,3.19,13.52v14.83c0,2.39-.11,4.2-.32,5.42l5.02-.24v3.27h-16.27v-2.39c1.54,0,2.64-.38,3.31-1.16.66-.77,1.06-1.75,1.2-2.95.13-1.2.2-3.07.2-5.62v-11.17c-.05-4.57-.8-8.02-2.23-10.33-1.44-2.31-3.7-3.47-6.78-3.47-1.91,0-3.82.48-5.7,1.44-1.89.96-3.44,2.21-4.67,3.75.05.58.08,1.62.08,3.11l-.08,20.34c0,2.39-.11,4.2-.32,5.42l5.02-.24v3.27h-16.27v-2.39Z"/><path class="d" d="m403.22,443.78c-2.53-.69-4.75-1.7-6.66-3.03l.4,3.43h-4.15l-.48-16.99h3.11c.27,4.57,1.83,8.09,4.71,10.57,2.87,2.47,6.51,3.71,10.93,3.71,3.24,0,5.97-.89,8.17-2.67,2.21-1.78,3.31-4.21,3.31-7.3,0-2.29-.63-4.24-1.87-5.86-1.25-1.62-2.79-2.98-4.63-4.07-1.83-1.09-4.32-2.35-7.46-3.79-3.56-1.7-6.39-3.19-8.49-4.47-2.1-1.28-3.9-2.96-5.38-5.06-1.49-2.1-2.23-4.69-2.23-7.78,0-2.13.49-4.25,1.48-6.38.98-2.13,2.68-3.93,5.1-5.42,2.42-1.49,5.62-2.23,9.61-2.23,2.39,0,4.8.31,7.22.92,2.42.61,4.64,1.66,6.66,3.15l-.32-3.43h4.07v17.55h-2.87c-.27-4.2-1.61-7.75-4.03-10.65-2.42-2.9-5.81-4.35-10.17-4.35-3.19,0-5.69.89-7.5,2.67-1.81,1.78-2.71,4-2.71,6.66,0,2.13.61,3.96,1.83,5.5,1.22,1.54,2.71,2.82,4.47,3.83,1.75,1.01,4.23,2.26,7.42,3.75,3.62,1.65,6.53,3.14,8.73,4.47,2.21,1.33,4.08,3.07,5.62,5.22,1.54,2.15,2.31,4.8,2.31,7.94s-.73,5.61-2.19,7.9c-1.46,2.29-3.6,4.07-6.42,5.34-2.82,1.28-6.17,1.91-10.05,1.91-2.5,0-5.01-.35-7.54-1.04Z"/><path class="d" d="m447.88,440.91c-2.1-2.6-3.15-7.1-3.15-13.48v-14.2c0-2.23.11-3.96.32-5.18l-5.5.24v-3.27h2.47c2.07,0,3.64-.19,4.71-.56,1.06-.37,1.97-.9,2.71-1.59h2.31v24.33c0,4.68.65,8.11,1.95,10.29,1.3,2.18,3.47,3.27,6.5,3.27,1.97,0,3.89-.58,5.78-1.75,1.89-1.17,3.42-2.63,4.59-4.39v-20.5c0-2.5.13-4.52.4-6.06l-5.74.24v-3.27h2.47c2.07,0,3.64-.19,4.71-.56,1.06-.37,1.97-.9,2.71-1.59h2.31l-.08,30.15c0,3.08-.11,5.58-.32,7.5l5.74-.32v3.35h-11.41c-.27-1.65-.45-3.24-.56-4.79-1.75,1.75-3.8,3.2-6.14,4.35-2.34,1.14-4.63,1.71-6.86,1.71-4.52,0-7.83-1.3-9.93-3.91Z"/><path class="d" d="m497.76,430.14l.16-23.13-6.14.08v-3.43c2.55-.05,4.72-1.21,6.5-3.47,1.78-2.26,3.1-4.83,3.95-7.7h2.71v11.17h13.4v3.11l-13.4.16c-.05,8.13-.09,13.77-.12,16.91-.03,3.14-.04,4.89-.04,5.26,0,3.78.45,6.58,1.36,8.41s2.47,2.75,4.71,2.75c1.38,0,2.75-.43,4.11-1.28,1.36-.85,2.54-2.02,3.55-3.51l2.15,1.75c-2.07,3.08-4.12,5.12-6.14,6.1-2.02.98-3.99,1.48-5.9,1.48-7.29,0-10.9-4.89-10.85-14.67Z"/><path class="d" d="m528.71,441.14c1.54,0,2.66-.38,3.35-1.16.69-.77,1.1-1.77,1.24-2.99.13-1.22.2-3.08.2-5.58v-37.72c0-2.02.08-3.75.24-5.18l-5.66.32v-3.35c3.19,0,5.46-.19,6.82-.56s2.41-.9,3.15-1.6h2.31v24.33c1.86-1.54,3.96-2.8,6.3-3.79,2.34-.98,4.6-1.48,6.78-1.48,4.57,0,7.9,1.44,9.97,4.31,2.07,2.87,3.14,7.39,3.19,13.56l.08,14.83c0,2.39-.11,4.2-.32,5.42l5.02-.24v3.27h-16.27v-2.39c1.54,0,2.64-.38,3.31-1.16.66-.77,1.06-1.75,1.2-2.95s.2-3.07.2-5.62v-11.17c0-4.57-.72-7.99-2.15-10.25-1.44-2.26-3.7-3.39-6.78-3.39-1.97,0-3.92.47-5.86,1.4-1.94.93-3.5,2.11-4.67,3.55v23.53c0,2.07-.13,3.88-.4,5.42l5.02-.24v3.27h-16.27v-2.39Z"/><path class="d" d="m591.67,442.22c-2.95-1.73-5.28-4.2-6.98-7.42-1.7-3.22-2.55-6.92-2.55-11.12,0-3.72.85-7.22,2.55-10.49,1.7-3.27,4.08-5.89,7.14-7.86,3.06-1.97,6.53-2.95,10.41-2.95,3.03,0,5.77.67,8.21,1.99,2.45,1.33,4.39,3.31,5.82,5.94s2.15,5.86,2.15,9.69l-28.07.48c-.05,6.38,1,11.35,3.15,14.91,2.15,3.56,5.49,5.34,10.01,5.34,2.45,0,4.96-.64,7.54-1.91,2.58-1.28,4.56-2.84,5.94-4.71l1.91,1.59c-2.02,3.08-4.64,5.37-7.86,6.86-3.22,1.49-6.37,2.23-9.45,2.23-3.67,0-6.98-.87-9.93-2.59Zm19.26-25.08c0-3.19-.72-5.93-2.15-8.21-1.44-2.29-3.59-3.43-6.46-3.43-6.59,0-10.5,3.88-11.72,11.64h20.34Z"/><path class="d" d="m630.55,441.14c1.54,0,2.64-.38,3.31-1.16.66-.77,1.06-1.75,1.2-2.95.13-1.2.2-3.07.2-5.62v-18.18c0-2.23.11-3.96.32-5.18l-5.66.24v-3.27h2.47c2.02,0,3.48-.17,4.39-.52.9-.34,1.75-.89,2.55-1.63h2.31c.21,2.07.35,4.71.4,7.9,1.33-2.18,3.23-4.12,5.7-5.82,2.47-1.7,5.04-2.55,7.7-2.55,1.59,0,2.92.43,3.99,1.28s1.6,2.1,1.6,3.75c0,.85-.33,1.7-1,2.55-.67.85-1.61,1.28-2.83,1.28s-2.13-.44-2.87-1.32c-.75-.88-1.04-1.93-.88-3.15-2.02-.05-4.05.72-6.1,2.31-2.05,1.6-3.79,3.72-5.22,6.38l.08,19.62c0,2.39-.11,4.2-.32,5.42l5.02-.24v3.27h-16.35v-2.39Z"/><path class="d" d="m669,441.14c1.54,0,2.64-.38,3.31-1.16.66-.77,1.06-1.75,1.2-2.95.13-1.2.2-3.07.2-5.62v-37.72c0-2.02.08-3.75.24-5.18l-5.66.32v-3.35c3.19,0,5.46-.19,6.82-.56,1.36-.37,2.41-.9,3.15-1.6h2.31l.08,51.76c0,2.07-.13,3.88-.4,5.42l5.02-.24v3.27h-16.27v-2.39Z"/><path class="d" d="m698.78,442.18c-2.05-1.75-3.07-4.04-3.07-6.86,0-3.08,1.24-5.69,3.71-7.82,2.47-2.13,5.58-3.71,9.33-4.75,3.75-1.04,7.51-1.53,11.29-1.47v-4.95c0-3.46-.51-6.15-1.52-8.09-1.01-1.94-3.16-2.91-6.46-2.91-1.65,0-3.22.35-4.71,1.04-1.49.69-2.58,1.73-3.27,3.11.69.75,1.04,1.75,1.04,3.03,0,.8-.29,1.56-.88,2.27-.59.72-1.44,1.08-2.55,1.08s-1.99-.36-2.63-1.08c-.64-.72-.96-1.66-.96-2.83,0-1.75.68-3.36,2.03-4.83,1.36-1.46,3.24-2.62,5.66-3.47,2.42-.85,5.12-1.28,8.09-1.28,4.47,0,7.76,1.18,9.89,3.55,2.13,2.37,3.16,6.1,3.11,11.21l-.08,17.94c0,1.7-.11,3.51-.32,5.42l5.66-.32v3.35h-11.4c-.16-.8-.35-2.31-.56-4.55-3.88,3.88-8.06,5.82-12.52,5.82-3.88,0-6.85-.88-8.89-2.63Zm16.23-3.07c1.65-.77,3.32-1.95,5.03-3.55-.05-.8-.08-2.15-.08-4.07l.08-7.5c-4.36.16-8.24,1.05-11.64,2.67-3.4,1.62-5.1,4.11-5.1,7.46,0,1.97.58,3.48,1.75,4.55,1.17,1.06,2.66,1.6,4.47,1.6,2.02,0,3.85-.39,5.5-1.16Z"/><path class="d" d="m742.69,441.14c1.54,0,2.64-.38,3.31-1.16.66-.77,1.05-1.73,1.16-2.87.11-1.14.19-3.04.24-5.7l.08-18.18c0-2.23.11-3.96.32-5.18l-5.66.32v-3.35c3.14,0,5.29-.17,6.46-.52,1.17-.34,2.15-.89,2.95-1.63h2.31c.11,1.01.21,2.63.32,4.87,1.81-1.6,3.87-2.88,6.18-3.87,2.31-.98,4.59-1.48,6.82-1.48,4.62,0,8,1.45,10.13,4.35,2.12,2.9,3.19,7.4,3.19,13.52v14.83c0,2.39-.11,4.2-.32,5.42l5.02-.24v3.27h-16.27v-2.39c1.54,0,2.64-.38,3.31-1.16.66-.77,1.06-1.75,1.2-2.95.13-1.2.2-3.07.2-5.62v-11.17c-.05-4.57-.8-8.02-2.23-10.33-1.44-2.31-3.7-3.47-6.78-3.47-1.91,0-3.82.48-5.7,1.44-1.89.96-3.44,2.21-4.67,3.75.05.58.08,1.62.08,3.11l-.08,20.34c0,2.39-.11,4.2-.32,5.42l5.02-.24v3.27h-16.27v-2.39Z"/><path class="d" d="m804.33,442.34c-2.61-1.65-4.65-3.99-6.14-7.02-1.49-3.03-2.23-6.57-2.23-10.61,0-4.25.88-8.08,2.63-11.48,1.75-3.4,4.19-6.06,7.3-7.98s6.63-2.87,10.57-2.87c1.65,0,3.34.23,5.06.68,1.73.45,3.15.97,4.27,1.56v-10.93c0-2.02.08-3.75.24-5.18l-5.66.32v-3.35c3.14,0,5.38-.19,6.74-.56,1.36-.37,2.4-.9,3.15-1.6h2.31v51.76c0,1.7-.11,3.51-.32,5.42l5.66-.32v3.35h-11.41c-.27-1.44-.45-2.82-.56-4.15-1.54,1.7-3.42,3.03-5.62,3.99-2.21.96-4.59,1.44-7.14,1.44-3.3,0-6.25-.83-8.85-2.47Zm16.95-2.91c1.78-.98,3.28-2.25,4.51-3.79-.05-.85-.08-2.31-.08-4.39l.08-22.97c-2.5-1.86-5.45-2.79-8.85-2.79-3.83,0-6.91,1.58-9.25,4.75-2.34,3.16-3.51,7.35-3.51,12.56s1.04,9.8,3.11,13.12c2.07,3.32,5,4.98,8.77,4.98,1.7,0,3.44-.49,5.22-1.48Z"/></g><g class="c"><path class="d" d="m274.97,519.82c.65,0,1.11-.16,1.4-.49.28-.32.45-.74.5-1.24.06-.5.08-1.29.08-2.37v-7.67c0-.94.04-1.67.13-2.19l-2.39.13v-1.41c1.32,0,2.23-.07,2.72-.22.49-.15.91-.38,1.24-.69h.97c.04.34.09.93.13,1.78.69-.6,1.48-1.09,2.35-1.45s1.74-.54,2.59-.54c1.1,0,2.03.2,2.81.59.77.39,1.37.95,1.8,1.66.81-.65,1.71-1.19,2.71-1.61,1-.42,1.96-.64,2.87-.64,1.97,0,3.41.6,4.32,1.8s1.34,3.11,1.29,5.73l-.03,6.25c0,1.01-.04,1.77-.13,2.29l2.12-.1v1.38h-6.86v-1.01c.65,0,1.11-.16,1.4-.49.28-.32.45-.74.5-1.24.06-.5.08-1.29.08-2.37v-4.71c0-1.93-.3-3.37-.91-4.32-.6-.95-1.56-1.43-2.86-1.43-.69,0-1.4.15-2.1.45-.71.3-1.33.7-1.87,1.19.22.7.34,1.51.34,2.45l-.07,7.9c0,1.01-.05,1.77-.13,2.29l2.12-.1v1.38h-6.86v-1.01c.65,0,1.11-.16,1.4-.49.28-.32.44-.73.49-1.21.04-.48.08-1.28.1-2.4l.03-4.71c.02-1.95-.26-3.41-.84-4.37-.58-.96-1.51-1.45-2.79-1.45-.69,0-1.38.15-2.07.44-.68.29-1.27.68-1.77,1.18l.03,1.82v8.64c0,1.01-.04,1.77-.13,2.29l2.12-.1v1.38h-6.86v-1.01Z"/><path class="d" d="m325.33,519.82c.65,0,1.11-.16,1.4-.49.28-.32.45-.74.5-1.24.06-.5.08-1.29.08-2.37v-7.67c0-.65.04-1.38.13-2.19l-2.39.13v-1.41c1.32,0,2.27-.08,2.84-.24.57-.16,1.01-.38,1.33-.67h.97v13.58c0,1.01-.04,1.77-.13,2.29l2.12-.1v1.38h-6.86v-1.01Zm2.08-20.05c-.36-.39-.54-.86-.54-1.39s.19-1.01.55-1.41c.37-.4.79-.61,1.26-.61.52,0,.95.2,1.29.59.35.39.52.87.52,1.43s-.19,1-.55,1.39c-.37.39-.8.59-1.29.59s-.89-.2-1.24-.59Z"/><path class="d" d="m355.08,519.82c.65,0,1.11-.16,1.4-.49.28-.32.44-.73.49-1.21.04-.48.08-1.28.1-2.4l.03-7.67c0-.94.04-1.67.13-2.19l-2.39.13v-1.41c1.32,0,2.23-.07,2.72-.22.49-.15.91-.38,1.24-.69h.98c.04.43.09,1.11.13,2.05.76-.67,1.63-1.22,2.61-1.63.98-.41,1.93-.62,2.87-.62,1.95,0,3.37.61,4.27,1.83.9,1.22,1.34,3.12,1.34,5.7v6.25c0,1.01-.04,1.77-.13,2.29l2.12-.1v1.38h-6.86v-1.01c.65,0,1.11-.16,1.4-.49.28-.32.45-.74.5-1.24.06-.5.08-1.29.08-2.37v-4.71c-.02-1.93-.34-3.38-.94-4.35-.61-.97-1.56-1.46-2.86-1.46-.81,0-1.61.2-2.4.6-.8.4-1.45.93-1.97,1.58.02.25.03.68.03,1.31l-.03,8.57c0,1.01-.04,1.77-.13,2.29l2.12-.1v1.38h-6.86v-1.01Z"/><path class="d" d="m399.25,520.32c-1.1-.69-1.96-1.68-2.59-2.96s-.94-2.77-.94-4.47c0-1.79.37-3.41,1.11-4.84.74-1.43,1.76-2.55,3.08-3.36,1.31-.81,2.8-1.21,4.45-1.21.69,0,1.41.1,2.13.29.73.19,1.33.41,1.8.66v-4.61c0-.85.03-1.58.1-2.19l-2.39.13v-1.41c1.32,0,2.27-.08,2.84-.24.57-.16,1.01-.38,1.33-.67h.98v21.82c0,.72-.05,1.48-.13,2.29l2.39-.13v1.41h-4.81c-.11-.61-.19-1.19-.23-1.75-.65.72-1.44,1.28-2.37,1.68-.93.4-1.93.61-3.01.61-1.39,0-2.63-.35-3.73-1.04Zm7.14-1.23c.75-.41,1.38-.95,1.9-1.6-.02-.36-.03-.97-.03-1.85l.03-9.68c-1.05-.79-2.3-1.18-3.73-1.18-1.61,0-2.91.67-3.9,2-.99,1.33-1.48,3.1-1.48,5.29s.44,4.13,1.31,5.53c.87,1.4,2.11,2.1,3.7,2.1.72,0,1.45-.21,2.2-.62Z"/><path class="d" d="m436.37,519.82c.65,0,1.11-.16,1.4-.49.28-.32.45-.74.5-1.24.06-.5.08-1.29.08-2.37l-.03-10.25-2.76.07v-1.51h2.76v-.71c0-2.6.48-4.59,1.43-5.97.95-1.38,2.49-2.07,4.62-2.07.85,0,1.66.21,2.44.64.77.43,1.16,1.04,1.16,1.85,0,.45-.13.81-.39,1.09s-.61.42-1.06.42-.79-.15-1.03-.45c-.24-.3-.35-.61-.35-.92s.06-.59.17-.84c-.16-.18-.37-.32-.64-.42s-.54-.15-.81-.15c-.96,0-1.65.39-2.05,1.16-.4.77-.6,1.72-.6,2.84v3.53h4.54v1.31l-4.54.1.03,11.83c0,1.01-.05,1.77-.13,2.29l2.12-.1v1.38h-6.86v-1.01Z"/><path class="d" d="m470.77,519.72c-.88-1.1-1.33-2.99-1.33-5.68v-5.98c0-.94.04-1.67.13-2.19l-2.32.1v-1.38h1.04c.87,0,1.54-.08,1.98-.24.45-.16.83-.38,1.14-.67h.97v10.25c0,1.97.28,3.42.82,4.34s1.46,1.38,2.74,1.38c.83,0,1.64-.25,2.44-.74.79-.49,1.44-1.11,1.93-1.85v-8.64c0-1.05.06-1.91.17-2.56l-2.42.1v-1.38h1.04c.87,0,1.53-.08,1.98-.24.45-.16.83-.38,1.14-.67h.97l-.03,12.71c0,1.3-.04,2.35-.13,3.16l2.42-.13v1.41h-4.81c-.11-.69-.19-1.37-.23-2.02-.74.74-1.6,1.35-2.59,1.83-.99.48-1.95.72-2.89.72-1.9,0-3.3-.55-4.19-1.65Z"/><path class="d" d="m507.9,519.82c.65,0,1.12-.16,1.4-.49.28-.32.45-.74.5-1.24.06-.5.08-1.29.08-2.37v-15.9c0-.85.03-1.58.1-2.19l-2.39.13v-1.41c1.34,0,2.3-.08,2.87-.24.57-.16,1.01-.38,1.33-.67h.97l.03,21.82c0,.87-.06,1.64-.17,2.29l2.12-.1v1.38h-6.86v-1.01Z"/><path class="d" d="m537.69,519.82c.65,0,1.11-.16,1.39-.49.28-.32.44-.73.49-1.21.04-.48.08-1.28.1-2.4l.03-7.67c0-.94.04-1.67.13-2.19l-2.39.13v-1.41c1.32,0,2.23-.07,2.72-.22.49-.15.91-.38,1.24-.69h.97c.04.43.09,1.11.13,2.05.76-.67,1.63-1.22,2.61-1.63.97-.41,1.93-.62,2.87-.62,1.95,0,3.37.61,4.27,1.83.9,1.22,1.34,3.12,1.34,5.7v6.25c0,1.01-.05,1.77-.13,2.29l2.12-.1v1.38h-6.86v-1.01c.65,0,1.12-.16,1.4-.49.28-.32.45-.74.5-1.24.06-.5.08-1.29.08-2.37v-4.71c-.02-1.93-.34-3.38-.94-4.35-.6-.97-1.56-1.46-2.86-1.46-.81,0-1.61.2-2.4.6-.8.4-1.45.93-1.97,1.58.02.25.03.68.03,1.31l-.03,8.57c0,1.01-.04,1.77-.13,2.29l2.12-.1v1.38h-6.86v-1.01Z"/><path class="d" d="m582.35,520.27c-1.24-.73-2.22-1.77-2.94-3.13-.72-1.36-1.08-2.92-1.08-4.69,0-1.57.36-3.04,1.08-4.42.72-1.38,1.72-2.48,3.01-3.31s2.75-1.24,4.39-1.24c1.28,0,2.43.28,3.46.84,1.03.56,1.85,1.39,2.45,2.5.61,1.11.91,2.47.91,4.08l-11.83.2c-.02,2.69.42,4.79,1.33,6.29.91,1.5,2.31,2.25,4.22,2.25,1.03,0,2.09-.27,3.18-.81,1.09-.54,1.92-1.2,2.5-1.98l.81.67c-.85,1.3-1.96,2.26-3.31,2.89-1.36.63-2.68.94-3.98.94-1.55,0-2.94-.37-4.19-1.09Zm8.12-10.57c0-1.34-.3-2.5-.91-3.46-.6-.96-1.51-1.45-2.72-1.45-2.78,0-4.43,1.64-4.94,4.91h8.57Z"/><path class="d" d="m620.92,520.94c-.87-.28-1.62-.63-2.25-1.06l.13,1.18h-1.41l-.2-5.78h1.04c.04.92.3,1.74.76,2.45.46.72,1.06,1.28,1.82,1.7.75.42,1.55.62,2.4.62.96,0,1.82-.23,2.57-.69.75-.46,1.13-1.12,1.13-1.97,0-.63-.19-1.15-.55-1.58-.37-.43-.83-.78-1.38-1.06-.55-.28-1.32-.61-2.3-.99-1.19-.45-2.14-.87-2.86-1.26-.72-.39-1.33-.92-1.85-1.6-.52-.67-.77-1.52-.77-2.55,0-.74.18-1.48.54-2.22.36-.74.96-1.37,1.82-1.88.85-.52,1.98-.77,3.4-.77.69,0,1.41.11,2.13.34.73.22,1.41.59,2.03,1.11l-.07-1.28h1.41v5.88h-1.08c-.07-1.3-.47-2.43-1.19-3.38-.73-.95-1.75-1.43-3.08-1.43-1.01,0-1.81.25-2.4.76-.59.5-.89,1.1-.89,1.8,0,.65.2,1.2.59,1.65.39.45.88.83,1.46,1.14.58.31,1.37.66,2.35,1.04,1.17.47,2.11.91,2.82,1.31.72.4,1.33.94,1.83,1.6.5.66.76,1.46.76,2.4,0,1.08-.27,1.98-.82,2.72-.55.74-1.27,1.29-2.15,1.66-.88.37-1.83.55-2.84.55s-2.02-.14-2.89-.42Z"/><path class="d" d="m656.79,520.94c-.87-.28-1.62-.63-2.25-1.06l.13,1.18h-1.41l-.2-5.78h1.04c.04.92.3,1.74.76,2.45.46.72,1.06,1.28,1.82,1.7.75.42,1.55.62,2.4.62.96,0,1.82-.23,2.57-.69.75-.46,1.13-1.12,1.13-1.97,0-.63-.19-1.15-.55-1.58-.37-.43-.83-.78-1.38-1.06-.55-.28-1.32-.61-2.3-.99-1.19-.45-2.14-.87-2.86-1.26-.72-.39-1.33-.92-1.85-1.6-.52-.67-.77-1.52-.77-2.55,0-.74.18-1.48.54-2.22.36-.74.96-1.37,1.82-1.88.85-.52,1.98-.77,3.4-.77.69,0,1.41.11,2.13.34.73.22,1.41.59,2.03,1.11l-.07-1.28h1.41v5.88h-1.08c-.07-1.3-.47-2.43-1.19-3.38-.73-.95-1.75-1.43-3.08-1.43-1.01,0-1.81.25-2.4.76-.59.5-.89,1.1-.89,1.8,0,.65.2,1.2.59,1.65.39.45.88.83,1.46,1.14.58.31,1.37.66,2.35,1.04,1.17.47,2.11.91,2.82,1.31.72.4,1.33.94,1.83,1.6.5.66.76,1.46.76,2.4,0,1.08-.27,1.98-.82,2.72-.55.74-1.27,1.29-2.15,1.66-.88.37-1.83.55-2.84.55s-2.02-.14-2.89-.42Z"/></g></svg>