<?xml version="1.0" encoding="utf-8"?>
<!-- Generator: Adobe Illustrator 27.9.0, SVG Export Plug-In . SVG Version: 6.00 Build 0)  -->
<svg version="1.1" id="a" xmlns="http://www.w3.org/2000/svg" xmlns:xlink="http://www.w3.org/1999/xlink" x="0px" y="0px"
	 viewBox="0 0 960 560" style="enable-background:new 0 0 960 560;" xml:space="preserve">
<style type="text/css">
	.st0{fill:#1A1F1C;}
	.st1{font-family:'Lora-Regular';}
	.st2{font-size:36px;}
	.st3{letter-spacing:11;}
</style>
<path class="st0" d="M585,237.4c-11,6-21.7,11.2-33,14.4c-4.7,1.3-10.8,4.1-12.8-2.4c-2.3-6.5,5.1-6.7,9-8c24.5-8,46.7-19.4,62.7-40
	c15.9-20.3,21.5-43.7,20.2-69.1c-0.4-6.5-3-9.9-10.4-9.9c-20.3-0.4-39.6,3.3-57.3,13.8c-14.3,8.6-25,19.4-28.5,37.2
	c-3.9,20.7-15,38.6-27.4,55.6c-2.3,3.1-5.1,7.5-9.6,3.7c-4.4-3.6-1.1-7.2,1.3-10.4c19-25,31.2-52.3,29.3-84.4
	c-2-38.1-20.7-67.4-48.5-93.6c-19.9,17.5-32.9,38.5-38,64c-5.1,25.4-0.9,49.5,11.6,72.1c1.9,3.6,3.3,7.2,5.2,11.1
	c1.5,3.2,1.5,6.2-1.9,8c-3.6,2-6-0.1-7.6-3.1c-2.7-4.4-5.2-9.1-7.5-14c-17.8-37.6-55.5-60.2-96.5-57.7c-11.9,0.8-14.4,3.2-15.4,15.1
	c-1.6,20.7,3.9,39.4,14.6,56.8c2,3.6,6.7,7.6,1.3,11.2c-5.1,3.2-8-1.3-10.3-5.1c-14-23-21.3-47.2-14.7-74.7c2.4-9.9,8-13.1,17-13.8
	c33.3-2.8,62.7,5.8,88,28.4c1.1,1.1,2.4,2,4.5,3.9c-0.1-13.2-1.1-25.5,0.9-38.1c5.1-29.7,20.6-52.8,42-73c4.5-4.3,8.8-4.1,13.1-0.1
	c28.7,25.8,49.1,56,52.8,95.6c0.1,2.8,0.4,5.6,3,8c9.5-6.7,18.9-13.8,29.8-18.3c18.7-7.6,38-9,57.7-8c9.1,0.4,11.2,6.2,11.9,13.6
	c3.3,37.3-6.3,70.2-34.4,96.5c-1.1,1.1-2.7,1.9-3.7,2.7c2.4,4.8,6.7,4.7,9.9,6.2c18.5,7.6,33,19.6,42,37.7c2.4,5.1,3,9.5-1.3,13.6
	c-26.3,25.3-56,43.7-94,43.6c-26.9-0.1-48.9-12.8-68.7-29.9c-13.2-11.4-25.8-23.5-39.2-34.5c-44.6-37.2-95.1-24.9-131.8,10.7
	c-5.6,5.5-1.5,8.8,1.6,12.6c26.9,31.6,66.7,41.4,105.7,26.2c6.7-2.7,12.8-6,19.2-9.4c3.3-1.6,6.7-3.2,9.1,0.8c2.7,4.3-0.5,6.7-3.9,9
	c-45,29.9-104,21.3-139.3-20.2c-12.8-15.1-12.8-15.5,1.9-29c30.5-27.7,64.8-41.7,106.1-29.8c21,6,37.3,19.4,53.1,33.8
	c13.5,12.3,26.7,25.4,42.2,35c30.9,19.2,62,17.1,93.2,1.1c11.4-5.8,21.3-14,31-22.2c3-2.7,4.8-5.2,3.2-9.6
	C636.5,252.8,604.1,234.2,585,237.4L585,237.4z"/>
<g>
	<path class="st0" d="M119.7,440.9c1.9,0,3.2-0.5,4-1.3s1.2-1.7,1.4-2.8s0.2-3,0.2-5.7v-34.5c0-2.2,0.1-4.1,0.2-5.7l-5.7,0.3v-3.5
		h17.9v2.6c-1.9,0-3.2,0.5-4,1.3s-1.2,1.7-1.4,2.8s-0.2,3-0.2,5.7v13.1h6l10-15.7c2-3,3.9-5.2,5.7-6.7l-4.9,0.2v-3.3H166v2.6
		c-2.4,0.2-4.5,0.6-6.2,1.2s-3.3,1.6-4.9,3.1c-1.6,1.5-3.3,3.6-5,6.5l-7.8,12.4c1.2,0.8,2.2,1.5,3,2.4s1.6,1.8,2.3,2.6
		s1.1,1.5,1.3,1.7l8.9,11.9c2,2.6,3.6,4.5,4.9,5.7c1.3,1.2,2.4,2,3.4,2.4s2.1,0.6,3.4,0.6v2.6h-9.7c-1.4,0-4.1-2.6-8.1-7.8
		l-9.6-12.9c-1.3-1.6-2.4-3-3.3-4.1c-0.9-1.1-1.8-1.9-2.7-2.4l-3.9,0.1V434c0,2.8-0.1,4.9-0.2,6.3l5.7-0.3v3.5h-17.9L119.7,440.9
		L119.7,440.9z"/>
	<path class="st0" d="M180.6,442.2c-2.1-1.8-3.1-4-3.1-6.9c0-3.1,1.2-5.7,3.7-7.8s5.6-3.7,9.3-4.8s7.5-1.5,11.3-1.5v-5
		c0-3.5-0.5-6.1-1.5-8.1c-1-1.9-3.2-2.9-6.5-2.9c-1.6,0-3.2,0.4-4.7,1s-2.6,1.7-3.3,3.1c0.7,0.8,1,1.8,1,3c0,0.8-0.3,1.6-0.9,2.3
		c-0.6,0.7-1.4,1.1-2.6,1.1s-2-0.4-2.6-1.1s-1-1.7-1-2.8c0-1.8,0.7-3.4,2-4.8c1.4-1.5,3.2-2.6,5.7-3.5s5.1-1.3,8.1-1.3
		c4.5,0,7.8,1.2,9.9,3.5s3.2,6.1,3.1,11.2l-0.1,17.9c0,1.7-0.1,3.5-0.3,5.4l5.7-0.3v3.4h-11.4c-0.2-0.8-0.4-2.3-0.6-4.5
		c-3.9,3.9-8.1,5.8-12.5,5.8C185.6,444.8,182.6,443.9,180.6,442.2L180.6,442.2z M196.8,439.1c1.6-0.8,3.3-2,5-3.5
		c-0.1-0.8-0.1-2.1-0.1-4.1l0.1-7.5c-4.4,0.2-8.2,1-11.6,2.7c-3.4,1.6-5.1,4.1-5.1,7.5c0,2,0.6,3.5,1.8,4.5c1.2,1.1,2.7,1.6,4.5,1.6
		C193.4,440.3,195.2,439.9,196.8,439.1z"/>
	<path class="st0" d="M224.5,441.1c1.5,0,2.6-0.4,3.3-1.2c0.7-0.8,1.1-1.8,1.2-3c0.1-1.2,0.2-3.1,0.2-5.6v-18.2c0-2.2,0.1-4,0.3-5.2
		l-5.7,0.2V405h2.5c2,0,3.5-0.2,4.4-0.5s1.8-0.9,2.6-1.6h2.3c0.2,2.1,0.4,4.7,0.4,7.9c1.3-2.2,3.2-4.1,5.7-5.8s5-2.5,7.7-2.5
		c1.6,0,2.9,0.4,4,1.3s1.6,2.1,1.6,3.8c0,0.9-0.3,1.7-1,2.5c-0.7,0.9-1.6,1.3-2.8,1.3s-2.1-0.4-2.9-1.3c-0.8-0.9-1-1.9-0.9-3.1
		c-2,0-4.1,0.7-6.1,2.3c-2.1,1.6-3.8,3.7-5.2,6.4l0.1,19.6c0,2.4-0.1,4.2-0.3,5.4l5-0.2v3.3h-16.4L224.5,441.1L224.5,441.1z"/>
	<path class="st0" d="M272.9,442.2c-3-1.7-5.3-4.2-7-7.4s-2.5-6.9-2.5-11.1c0-3.7,0.9-7.2,2.5-10.5c1.7-3.3,4.1-5.9,7.1-7.9
		c3.1-2,6.5-3,10.4-3c3,0,5.8,0.7,8.2,2c2.4,1.3,4.4,3.3,5.8,5.9s2.1,5.9,2.1,9.7l-28.1,0.5c0,6.4,1,11.4,3.1,14.9s5.5,5.3,10,5.3
		c2.5,0,5-0.6,7.5-1.9c2.6-1.3,4.6-2.8,5.9-4.7l1.9,1.6c-2,3.1-4.6,5.4-7.9,6.9c-3.2,1.5-6.4,2.2-9.5,2.2
		C279.1,444.8,275.8,443.9,272.9,442.2L272.9,442.2z M292.2,417.1c0-3.2-0.7-5.9-2.1-8.2c-1.4-2.3-3.6-3.4-6.5-3.4
		c-6.6,0-10.5,3.9-11.7,11.6H292.2L292.2,417.1z"/>
	<path class="st0" d="M311.8,441.1c1.5,0,2.6-0.4,3.3-1.2c0.7-0.8,1-1.7,1.2-2.9c0.1-1.1,0.2-3,0.2-5.7l0.1-18.2
		c0-2.2,0.1-4,0.3-5.2l-5.7,0.3V405c3.1,0,5.3-0.2,6.5-0.5s2.1-0.9,3-1.6h2.3c0.1,1,0.2,2.6,0.3,4.9c1.8-1.6,3.9-2.9,6.2-3.9
		c2.3-1,4.6-1.5,6.8-1.5c4.6,0,8,1.5,10.1,4.4s3.2,7.4,3.2,13.5v14.8c0,2.4-0.1,4.2-0.3,5.4l5-0.2v3.3H338v-2.4
		c1.5,0,2.6-0.4,3.3-1.2c0.7-0.8,1.1-1.8,1.2-3s0.2-3.1,0.2-5.6v-11.2c0-4.6-0.8-8-2.2-10.3c-1.4-2.3-3.7-3.5-6.8-3.5
		c-1.9,0-3.8,0.5-5.7,1.4c-1.9,1-3.4,2.2-4.7,3.8c0,0.6,0.1,1.6,0.1,3.1l-0.1,20.3c0,2.4-0.1,4.2-0.3,5.4l5-0.2v3.3h-16.3
		L311.8,441.1L311.8,441.1z"/>
	<path class="st0" d="M403.2,443.8c-2.5-0.7-4.8-1.7-6.7-3l0.4,3.4h-4.1l-0.5-17h3.1c0.3,4.6,1.8,8.1,4.7,10.6
		c2.9,2.5,6.5,3.7,10.9,3.7c3.2,0,6-0.9,8.2-2.7c2.2-1.8,3.3-4.2,3.3-7.3c0-2.3-0.6-4.2-1.9-5.9c-1.2-1.6-2.8-3-4.6-4.1
		c-1.8-1.1-4.3-2.4-7.5-3.8c-3.6-1.7-6.4-3.2-8.5-4.5s-3.9-3-5.4-5.1s-2.2-4.7-2.2-7.8c0-2.1,0.5-4.2,1.5-6.4c1-2.1,2.7-3.9,5.1-5.4
		s5.6-2.2,9.6-2.2c2.4,0,4.8,0.3,7.2,0.9c2.4,0.6,4.6,1.7,6.7,3.1l-0.3-3.4h4.1v17.5h-2.9c-0.3-4.2-1.6-7.8-4-10.6
		s-5.8-4.4-10.2-4.4c-3.2,0-5.7,0.9-7.5,2.7s-2.7,4-2.7,6.7c0,2.1,0.6,4,1.8,5.5s2.7,2.8,4.5,3.8s4.2,2.3,7.4,3.8
		c3.6,1.6,6.5,3.1,8.7,4.5c2.2,1.3,4.1,3.1,5.6,5.2s2.3,4.8,2.3,7.9s-0.7,5.6-2.2,7.9s-3.6,4.1-6.4,5.3c-2.8,1.3-6.2,1.9-10,1.9
		C408.3,444.8,405.7,444.5,403.2,443.8L403.2,443.8z"/>
	<path class="st0" d="M447.9,440.9c-2.1-2.6-3.1-7.1-3.1-13.5v-14.2c0-2.2,0.1-4,0.3-5.2l-5.5,0.2V405h2.5c2.1,0,3.6-0.2,4.7-0.6
		s2-0.9,2.7-1.6h2.3v24.3c0,4.7,0.6,8.1,2,10.3c1.3,2.2,3.5,3.3,6.5,3.3c2,0,3.9-0.6,5.8-1.8c1.9-1.2,3.4-2.6,4.6-4.4V414
		c0-2.5,0.1-4.5,0.4-6.1l-5.7,0.2V405h2.5c2.1,0,3.6-0.2,4.7-0.6s2-0.9,2.7-1.6h2.3l-0.1,30.1c0,3.1-0.1,5.6-0.3,7.5l5.7-0.3v3.4
		h-11.4c-0.3-1.6-0.5-3.2-0.6-4.8c-1.8,1.8-3.8,3.2-6.1,4.4c-2.3,1.1-4.6,1.7-6.9,1.7C453.3,444.8,450,443.5,447.9,440.9
		L447.9,440.9z"/>
	<path class="st0" d="M497.8,430.1L498,407l-6.1,0.1v-3.4c2.5,0,4.7-1.2,6.5-3.5s3.1-4.8,4-7.7h2.7v11.2h13.4v3.1l-13.4,0.2
		c0,8.1-0.1,13.8-0.1,16.9s0,4.9,0,5.3c0,3.8,0.5,6.6,1.4,8.4s2.5,2.8,4.7,2.8c1.4,0,2.7-0.4,4.1-1.3s2.5-2,3.5-3.5l2.2,1.8
		c-2.1,3.1-4.1,5.1-6.1,6.1s-4,1.5-5.9,1.5C501.3,444.8,497.7,439.9,497.8,430.1L497.8,430.1z"/>
	<path class="st0" d="M528.7,441.1c1.5,0,2.7-0.4,3.3-1.2c0.7-0.8,1.1-1.8,1.2-3c0.1-1.2,0.2-3.1,0.2-5.6v-37.7c0-2,0.1-3.8,0.2-5.2
		l-5.7,0.3v-3.4c3.2,0,5.5-0.2,6.8-0.6s2.4-0.9,3.2-1.6h2.3v24.3c1.9-1.5,4-2.8,6.3-3.8s4.6-1.5,6.8-1.5c4.6,0,7.9,1.4,10,4.3
		s3.1,7.4,3.2,13.6l0.1,14.8c0,2.4-0.1,4.2-0.3,5.4l5-0.2v3.3H555v-2.4c1.5,0,2.6-0.4,3.3-1.2c0.7-0.8,1.1-1.8,1.2-3
		s0.2-3.1,0.2-5.6v-11.2c0-4.6-0.7-8-2.2-10.2c-1.4-2.3-3.7-3.4-6.8-3.4c-2,0-3.9,0.5-5.9,1.4s-3.5,2.1-4.7,3.5v23.5
		c0,2.1-0.1,3.9-0.4,5.4l5-0.2v3.3h-16.3v-2.1H528.7z"/>
	<path class="st0" d="M591.7,442.2c-3-1.7-5.3-4.2-7-7.4c-1.7-3.2-2.5-6.9-2.5-11.1c0-3.7,0.8-7.2,2.5-10.5s4.1-5.9,7.1-7.9
		c3.1-2,6.5-3,10.4-3c3,0,5.8,0.7,8.2,2c2.5,1.3,4.4,3.3,5.8,5.9s2.2,5.9,2.2,9.7l-28.1,0.5c0,6.4,1,11.4,3.2,14.9s5.5,5.3,10,5.3
		c2.5,0,5-0.6,7.5-1.9c2.6-1.3,4.6-2.8,5.9-4.7l1.9,1.6c-2,3.1-4.6,5.4-7.9,6.9s-6.4,2.2-9.5,2.2
		C597.9,444.8,594.6,443.9,591.7,442.2L591.7,442.2z M610.9,417.1c0-3.2-0.7-5.9-2.2-8.2c-1.4-2.3-3.6-3.4-6.5-3.4
		c-6.6,0-10.5,3.9-11.7,11.6H610.9L610.9,417.1z"/>
	<path class="st0" d="M630.5,441.1c1.5,0,2.6-0.4,3.3-1.2c0.7-0.8,1.1-1.8,1.2-3c0.1-1.2,0.2-3.1,0.2-5.6v-18.2c0-2.2,0.1-4,0.3-5.2
		l-5.7,0.2V405h2.5c2,0,3.5-0.2,4.4-0.5s1.8-0.9,2.5-1.6h2.3c0.2,2.1,0.3,4.7,0.4,7.9c1.3-2.2,3.2-4.1,5.7-5.8
		c2.5-1.7,5-2.5,7.7-2.5c1.6,0,2.9,0.4,4,1.3s1.6,2.1,1.6,3.8c0,0.9-0.3,1.7-1,2.5c-0.7,0.9-1.6,1.3-2.8,1.3s-2.1-0.4-2.9-1.3
		c-0.8-0.9-1-1.9-0.9-3.1c-2,0-4,0.7-6.1,2.3c-2,1.6-3.8,3.7-5.2,6.4l0.1,19.6c0,2.4-0.1,4.2-0.3,5.4l5-0.2v3.3h-16.3V441.1
		L630.5,441.1z"/>
	<path class="st0" d="M669,441.1c1.5,0,2.6-0.4,3.3-1.2c0.7-0.8,1.1-1.8,1.2-3c0.1-1.2,0.2-3.1,0.2-5.6v-37.7c0-2,0.1-3.8,0.2-5.2
		l-5.7,0.3v-3.4c3.2,0,5.5-0.2,6.8-0.6s2.4-0.9,3.2-1.6h2.3l0.1,51.8c0,2.1-0.1,3.9-0.4,5.4l5-0.2v3.3H669V441.1L669,441.1z"/>
	<path class="st0" d="M698.8,442.2c-2-1.8-3.1-4-3.1-6.9c0-3.1,1.2-5.7,3.7-7.8c2.5-2.1,5.6-3.7,9.3-4.8s7.5-1.5,11.3-1.5v-5
		c0-3.5-0.5-6.1-1.5-8.1s-3.2-2.9-6.5-2.9c-1.7,0-3.2,0.4-4.7,1c-1.5,0.7-2.6,1.7-3.3,3.1c0.7,0.8,1,1.8,1,3c0,0.8-0.3,1.6-0.9,2.3
		c-0.6,0.7-1.4,1.1-2.5,1.1s-2-0.4-2.6-1.1s-1-1.7-1-2.8c0-1.8,0.7-3.4,2-4.8c1.4-1.5,3.2-2.6,5.7-3.5s5.1-1.3,8.1-1.3
		c4.5,0,7.8,1.2,9.9,3.5s3.2,6.1,3.1,11.2l-0.1,17.9c0,1.7-0.1,3.5-0.3,5.4l5.7-0.3v3.4h-11.4c-0.2-0.8-0.3-2.3-0.6-4.5
		c-3.9,3.9-8.1,5.8-12.5,5.8C703.8,444.8,700.8,443.9,698.8,442.2L698.8,442.2z M715,439.1c1.7-0.8,3.3-2,5-3.5
		c0-0.8-0.1-2.1-0.1-4.1l0.1-7.5c-4.4,0.2-8.2,1-11.6,2.7c-3.4,1.6-5.1,4.1-5.1,7.5c0,2,0.6,3.5,1.8,4.5c1.2,1.1,2.7,1.6,4.5,1.6
		C711.5,440.3,713.4,439.9,715,439.1L715,439.1z"/>
	<path class="st0" d="M742.7,441.1c1.5,0,2.6-0.4,3.3-1.2c0.7-0.8,1-1.7,1.2-2.9c0.1-1.1,0.2-3,0.2-5.7l0.1-18.2
		c0-2.2,0.1-4,0.3-5.2l-5.7,0.3V405c3.1,0,5.3-0.2,6.5-0.5s2.2-0.9,3-1.6h2.3c0.1,1,0.2,2.6,0.3,4.9c1.8-1.6,3.9-2.9,6.2-3.9
		s4.6-1.5,6.8-1.5c4.6,0,8,1.5,10.1,4.4s3.2,7.4,3.2,13.5v14.8c0,2.4-0.1,4.2-0.3,5.4l5-0.2v3.3h-16.3v-2.4c1.5,0,2.6-0.4,3.3-1.2
		c0.7-0.8,1.1-1.8,1.2-3c0.1-1.2,0.2-3.1,0.2-5.6v-11.2c0-4.6-0.8-8-2.2-10.3s-3.7-3.5-6.8-3.5c-1.9,0-3.8,0.5-5.7,1.4
		c-1.9,1-3.4,2.2-4.7,3.8c0,0.6,0.1,1.6,0.1,3.1l-0.1,20.3c0,2.4-0.1,4.2-0.3,5.4l5-0.2v3.3h-16.3L742.7,441.1L742.7,441.1z"/>
	<path class="st0" d="M804.3,442.3c-2.6-1.6-4.7-4-6.1-7s-2.2-6.6-2.2-10.6c0-4.2,0.9-8.1,2.6-11.5c1.8-3.4,4.2-6.1,7.3-8
		s6.6-2.9,10.6-2.9c1.7,0,3.3,0.2,5.1,0.7c1.7,0.5,3.2,1,4.3,1.6v-10.9c0-2,0.1-3.8,0.2-5.2l-5.7,0.3v-3.4c3.1,0,5.4-0.2,6.7-0.6
		s2.4-0.9,3.2-1.6h2.3V435c0,1.7-0.1,3.5-0.3,5.4l5.7-0.3v3.4h-11.4c-0.3-1.4-0.5-2.8-0.6-4.1c-1.5,1.7-3.4,3-5.6,4
		c-2.2,1-4.6,1.4-7.1,1.4C809.9,444.8,806.9,444,804.3,442.3L804.3,442.3z M821.3,439.4c1.8-1,3.3-2.2,4.5-3.8
		c0-0.9-0.1-2.3-0.1-4.4l0.1-23c-2.5-1.9-5.5-2.8-8.8-2.8c-3.8,0-6.9,1.6-9.2,4.8c-2.3,3.2-3.5,7.4-3.5,12.6s1,9.8,3.1,13.1
		s5,5,8.8,5C817.8,440.9,819.5,440.4,821.3,439.4L821.3,439.4z"/>
</g>
<text transform="matrix(1 0 0 1 328.491 508.5117)" class="st1 st2 st3">counselling</text>
</svg>
