<?xml version="1.0" encoding="utf-8"?>
<!-- Generator: Adobe Illustrator 27.6.1, SVG Export Plug-In . SVG Version: 6.00 Build 0)  -->
<svg version="1.1" id="a" xmlns="http://www.w3.org/2000/svg" xmlns:xlink="http://www.w3.org/1999/xlink" x="0px" y="0px"
	 viewBox="0 0 240 64" style="enable-background:new 0 0 240 64;" xml:space="preserve">
<style type="text/css">
	.st0{fill:#1A1F1C;}
</style>
<path class="st0" d="M60.3,39.8c-1.5,0.8-3,1.5-4.5,2c-0.7,0.2-1.5,0.6-1.8-0.3c-0.3-0.9,0.7-0.9,1.2-1.1c3.4-1.1,6.4-2.7,8.6-5.5
	c2.2-2.8,2.9-6,2.8-9.5c-0.1-0.9-0.4-1.4-1.4-1.4c-2.8,0-5.4,0.5-7.9,1.9c-2,1.2-3.4,2.7-3.9,5.1c-0.5,2.8-2.1,5.3-3.8,7.7
	c-0.3,0.4-0.7,1-1.3,0.5c-0.6-0.5-0.2-1,0.2-1.4c2.6-3.4,4.3-7.2,4-11.6c-0.3-5.2-2.8-9.3-6.7-12.9c-2.8,2.4-4.5,5.3-5.2,8.8
	c-0.7,3.5-0.1,6.8,1.6,9.9c0.3,0.5,0.4,1,0.7,1.5c0.2,0.4,0.2,0.9-0.3,1.1c-0.5,0.3-0.8,0-1-0.4c-0.4-0.6-0.7-1.3-1-1.9
	c-2.4-5.2-7.6-8.3-13.3-7.9c-1.6,0.1-2,0.4-2.1,2.1c-0.2,2.8,0.5,5.4,2,7.8c0.3,0.5,0.9,1,0.2,1.5c-0.7,0.4-1.1-0.2-1.4-0.7
	c-1.9-3.2-2.9-6.5-2-10.3c0.3-1.4,1.1-1.8,2.3-1.9c4.6-0.4,8.6,0.8,12.1,3.9c0.2,0.2,0.3,0.3,0.6,0.5c0-1.8-0.2-3.5,0.1-5.2
	c0.7-4.1,2.8-7.3,5.8-10.1c0.6-0.6,1.2-0.6,1.8,0c4,3.5,6.8,7.7,7.3,13.2c0,0.4,0,0.8,0.4,1.1c1.3-0.9,2.6-1.9,4.1-2.5
	c2.6-1,5.2-1.2,7.9-1.1c1.3,0.1,1.5,0.9,1.6,1.9c0.5,5.1-0.9,9.7-4.7,13.3c-0.2,0.2-0.4,0.3-0.5,0.4c0.3,0.7,0.9,0.7,1.4,0.9
	c2.6,1,4.6,2.7,5.8,5.2c0.3,0.7,0.4,1.3-0.2,1.9c-3.6,3.5-7.7,6-12.9,6c-3.7,0-6.7-1.8-9.5-4.1c-1.8-1.6-3.5-3.2-5.4-4.8
	c-6.1-5.1-13.1-3.4-18.1,1.5c-0.8,0.8-0.2,1.2,0.2,1.7c3.7,4.3,9.2,5.7,14.5,3.6c0.9-0.4,1.8-0.8,2.6-1.3c0.5-0.2,0.9-0.4,1.3,0.1
	c0.4,0.6-0.1,0.9-0.5,1.2c-6.2,4.1-14.3,2.9-19.2-2.8c-1.8-2.1-1.8-2.1,0.3-4c4.2-3.8,8.9-5.7,14.6-4.1c2.9,0.8,5.1,2.7,7.3,4.6
	c1.9,1.7,3.7,3.5,5.8,4.8c4.2,2.6,8.5,2.4,12.8,0.2c1.6-0.8,2.9-1.9,4.3-3.1c0.4-0.4,0.7-0.7,0.4-1.3C67.4,41.9,62.9,39.3,60.3,39.8
	L60.3,39.8L60.3,39.8z"/>
<path d="M91.4,37.5c-0.5-0.2-0.9-0.5-1.3-0.9l-0.4,0.8h-0.7l0-11.7c0-0.5,0-0.9,0.1-1.2l-1.3,0.1v-0.8c0.8,0,1.3,0,1.6-0.1
	s0.6-0.2,0.7-0.4h0.5v5.6c0.3-0.4,0.8-0.6,1.2-0.8c0.5-0.2,1-0.3,1.6-0.3c0.8,0,1.5,0.2,2.2,0.6c0.7,0.4,1.2,0.9,1.5,1.7
	c0.4,0.7,0.6,1.6,0.6,2.5c0,1-0.2,2-0.7,2.7c-0.4,0.8-1.1,1.4-1.8,1.8s-1.6,0.6-2.4,0.6C92.4,37.7,91.9,37.6,91.4,37.5z M95.1,35.9
	c0.5-0.7,0.8-1.7,0.8-2.9c0-1.3-0.2-2.4-0.7-3.1c-0.5-0.8-1.2-1.2-2.2-1.2c-0.4,0-0.8,0.1-1.2,0.3s-0.8,0.5-1,0.8v4.7
	c0,1.7,0.7,2.5,2.2,2.5C93.8,37,94.5,36.6,95.1,35.9z"/>
<path d="M105.4,37.1c-0.7-0.4-1.2-1-1.6-1.7c-0.4-0.8-0.6-1.6-0.6-2.6c0-0.9,0.2-1.7,0.6-2.5c0.4-0.8,1-1.4,1.7-1.9
	c0.7-0.5,1.5-0.7,2.4-0.7c0.7,0,1.4,0.2,1.9,0.5s1,0.8,1.4,1.4c0.3,0.6,0.5,1.4,0.5,2.3l-6.6,0.1c0,1.5,0.2,2.7,0.7,3.5
	c0.5,0.8,1.3,1.3,2.3,1.3c0.6,0,1.2-0.2,1.8-0.5c0.6-0.3,1.1-0.7,1.4-1.1l0.4,0.4c-0.5,0.7-1.1,1.3-1.8,1.6s-1.5,0.5-2.2,0.5
	C106.8,37.7,106.1,37.5,105.4,37.1L105.4,37.1z M109.9,31.2c0-0.8-0.2-1.4-0.5-1.9s-0.8-0.8-1.5-0.8c-1.6,0-2.5,0.9-2.8,2.7H109.9
	L109.9,31.2z"/>
<path d="M125.8,36.9c0.4,0,0.6-0.1,0.8-0.3c0.2-0.2,0.2-0.4,0.3-0.7s0.1-0.7,0.1-1.3v-4.3c0-0.5,0-0.9,0.1-1.2l-1.3,0.1v-0.8
	c0.7,0,1.2,0,1.5-0.1c0.3-0.1,0.5-0.2,0.7-0.4h0.5c0,0.2,0.1,0.5,0.1,1c0.4-0.3,0.8-0.6,1.3-0.8c0.5-0.2,1-0.3,1.4-0.3
	c0.6,0,1.1,0.1,1.6,0.3c0.4,0.2,0.8,0.5,1,0.9c0.4-0.4,0.9-0.7,1.5-0.9s1.1-0.4,1.6-0.4c1.1,0,1.9,0.3,2.4,1s0.8,1.7,0.7,3.2l0,3.5
	c0,0.6,0,1-0.1,1.3l1.2-0.1v0.8h-3.8v-0.6c0.4,0,0.6-0.1,0.8-0.3s0.2-0.4,0.3-0.7s0-0.7,0-1.3V32c0-1.1-0.2-1.9-0.5-2.4
	c-0.3-0.5-0.9-0.8-1.6-0.8c-0.4,0-0.8,0.1-1.2,0.2s-0.7,0.4-1,0.7c0.1,0.4,0.2,0.8,0.2,1.4l0,4.4c0,0.6,0,1-0.1,1.3l1.2-0.1v0.8
	h-3.8v-0.6c0.4,0,0.6-0.1,0.8-0.3s0.2-0.4,0.3-0.7c0-0.3,0-0.7,0.1-1.3l0-2.6c0-1.1-0.1-1.9-0.5-2.4c-0.3-0.5-0.8-0.8-1.6-0.8
	c-0.4,0-0.8,0.1-1.1,0.2s-0.7,0.4-1,0.7l0,1v4.8c0,0.6,0,1-0.1,1.3l1.2-0.1v0.8h-3.8L125.8,36.9L125.8,36.9z"/>
<path d="M146.3,36.9c0.4,0,0.6-0.1,0.8-0.3c0.2-0.2,0.2-0.4,0.3-0.7s0.1-0.7,0.1-1.3v-4.3c0-0.4,0-0.8,0.1-1.2l-1.3,0.1v-0.8
	c0.7,0,1.3,0,1.6-0.1c0.3-0.1,0.6-0.2,0.7-0.4h0.5v7.6c0,0.6,0,1-0.1,1.3l1.2-0.1v0.8h-3.8L146.3,36.9L146.3,36.9z M147.4,25.7
	c-0.2-0.2-0.3-0.5-0.3-0.8s0.1-0.6,0.3-0.8c0.2-0.2,0.4-0.3,0.7-0.3c0.3,0,0.5,0.1,0.7,0.3c0.2,0.2,0.3,0.5,0.3,0.8
	s-0.1,0.6-0.3,0.8c-0.2,0.2-0.4,0.3-0.7,0.3S147.6,25.9,147.4,25.7z"/>
<path d="M155.3,36.9c0.4,0,0.6-0.1,0.8-0.3s0.2-0.4,0.3-0.7c0-0.3,0-0.7,0.1-1.3l0-4.3c0-0.5,0-0.9,0.1-1.2l-1.3,0.1v-0.8
	c0.7,0,1.2,0,1.5-0.1c0.3-0.1,0.5-0.2,0.7-0.4h0.5c0,0.2,0,0.6,0.1,1.1c0.4-0.4,0.9-0.7,1.5-0.9c0.5-0.2,1.1-0.4,1.6-0.4
	c1.1,0,1.9,0.3,2.4,1s0.8,1.7,0.8,3.2v3.5c0,0.6,0,1-0.1,1.3l1.2-0.1v0.8h-3.8v-0.6c0.4,0,0.6-0.1,0.8-0.3s0.2-0.4,0.3-0.7
	s0-0.7,0-1.3V32c0-1.1-0.2-1.9-0.5-2.4c-0.3-0.5-0.9-0.8-1.6-0.8c-0.4,0-0.9,0.1-1.3,0.3s-0.8,0.5-1.1,0.9c0,0.1,0,0.4,0,0.7l0,4.8
	c0,0.6,0,1-0.1,1.3l1.2-0.1v0.8h-3.8L155.3,36.9L155.3,36.9z"/>
<path d="M172.4,37.1c-0.6-0.4-1.1-0.9-1.4-1.6s-0.5-1.5-0.5-2.5c0-1,0.2-1.9,0.6-2.7c0.4-0.8,1-1.4,1.7-1.9c0.7-0.5,1.6-0.7,2.5-0.7
	c0.4,0,0.8,0,1.2,0.2s0.7,0.2,1,0.4v-2.6c0-0.5,0-0.9,0.1-1.2l-1.3,0.1v-0.8c0.7,0,1.3,0,1.6-0.1c0.3-0.1,0.6-0.2,0.7-0.4h0.5v12.2
	c0,0.4,0,0.8-0.1,1.3l1.3-0.1v0.8h-2.7c-0.1-0.3-0.1-0.7-0.1-1c-0.4,0.4-0.8,0.7-1.3,0.9c-0.5,0.2-1.1,0.3-1.7,0.3
	C173.6,37.7,173,37.5,172.4,37.1L172.4,37.1z M176.3,36.5c0.4-0.2,0.8-0.5,1.1-0.9c0-0.2,0-0.5,0-1l0-5.4c-0.6-0.4-1.3-0.7-2.1-0.7
	c-0.9,0-1.6,0.4-2.2,1.1c-0.5,0.7-0.8,1.7-0.8,2.9c0,1.2,0.2,2.3,0.7,3.1s1.2,1.2,2.1,1.2C175.5,36.8,175.9,36.7,176.3,36.5
	L176.3,36.5z"/>
<path d="M185.5,36.9c0.4,0,0.6-0.1,0.8-0.3s0.2-0.4,0.3-0.7s0.1-0.7,0.1-1.3l0-5.7l-1.5,0v-0.8h1.5v-0.4c0-1.4,0.3-2.6,0.8-3.3
	c0.5-0.8,1.4-1.1,2.6-1.1c0.5,0,0.9,0.1,1.4,0.4c0.4,0.2,0.6,0.6,0.6,1c0,0.2-0.1,0.4-0.2,0.6c-0.1,0.2-0.3,0.2-0.6,0.2
	s-0.4-0.1-0.6-0.2c-0.1-0.2-0.2-0.3-0.2-0.5s0-0.3,0.1-0.5c-0.1-0.1-0.2-0.2-0.4-0.2c-0.1-0.1-0.3-0.1-0.5-0.1
	c-0.5,0-0.9,0.2-1.1,0.7s-0.3,1-0.3,1.6v2h2.5v0.7l-2.5,0.1l0,6.6c0,0.6,0,1-0.1,1.3l1.2-0.1v0.8h-3.8L185.5,36.9L185.5,36.9z"/>
<path d="M197.1,36.8c-0.5-0.6-0.7-1.7-0.7-3.2v-3.3c0-0.5,0-0.9,0.1-1.2l-1.3,0.1v-0.8h0.6c0.5,0,0.9,0,1.1-0.1s0.5-0.2,0.6-0.4h0.5
	v5.7c0,1.1,0.1,1.9,0.5,2.4c0.3,0.5,0.8,0.8,1.5,0.8c0.5,0,0.9-0.1,1.4-0.4c0.4-0.3,0.8-0.6,1.1-1v-4.8c0-0.6,0-1.1,0.1-1.4
	l-1.4,0.1v-0.8h0.6c0.5,0,0.9,0,1.1-0.1s0.5-0.2,0.6-0.4h0.5l0,7.1c0,0.7,0,1.3-0.1,1.8l1.4-0.1v0.8h-2.7c-0.1-0.4-0.1-0.8-0.1-1.1
	c-0.4,0.4-0.9,0.8-1.4,1c-0.6,0.3-1.1,0.4-1.6,0.4C198.4,37.7,197.6,37.4,197.1,36.8L197.1,36.8z"/>
<path d="M210.2,36.9c0.4,0,0.6-0.1,0.8-0.3s0.2-0.4,0.3-0.7s0.1-0.7,0.1-1.3v-8.9c0-0.5,0-0.9,0.1-1.2l-1.3,0.1v-0.8
	c0.8,0,1.3,0,1.6-0.1s0.6-0.2,0.7-0.4h0.5l0,12.2c0,0.5,0,0.9-0.1,1.3l1.2-0.1v0.8h-3.8V36.9z"/>
</svg>
