<?xml version="1.0" encoding="UTF-8"?><svg id="a" xmlns="http://www.w3.org/2000/svg" viewBox="0 0 240 64"><defs><style>.b{fill:#a4a1c3;}.c{fill:none;isolation:isolate;}.d{fill:#1a1f1c;}</style></defs><rect class="b" width="240" height="64"/><g class="c"><path class="d" d="m72.8,37.12c.4-.01.69-.1.86-.28s.27-.38.29-.61.03-.65.03-1.24v-7.46c0-.48.02-.9.05-1.24l-1.24.07v-.76h3.89v.57c-.4.01-.69.1-.86.28s-.27.38-.29.61c-.02.24-.03.65-.03,1.24v2.83h1.3l2.16-3.4c.43-.65.83-1.13,1.23-1.45l-1.05.03v-.71h3.71v.57c-.53.05-.98.13-1.34.26-.36.13-.72.35-1.06.67-.35.32-.71.79-1.09,1.4l-1.69,2.7c.25.16.47.34.66.53.18.19.35.38.49.57s.24.31.29.37l1.94,2.57c.43.57.78.98,1.06,1.24.28.27.53.44.73.52.21.08.45.12.74.12v.57h-2.11c-.3,0-.88-.56-1.75-1.69l-2.07-2.8c-.28-.36-.52-.65-.72-.88-.2-.23-.39-.4-.58-.52l-.85.02v3.82c0,.61-.02,1.07-.05,1.37l1.24-.07v.76h-3.89v-.57Z"/><path class="d" d="m85.99,37.39c-.44-.38-.67-.88-.67-1.49,0-.67.27-1.23.8-1.69.54-.46,1.21-.8,2.02-1.03.81-.22,1.63-.33,2.45-.32v-1.07c0-.75-.11-1.33-.33-1.75s-.69-.63-1.4-.63c-.36,0-.7.08-1.02.22-.32.15-.56.37-.71.67.15.16.22.38.22.66,0,.17-.06.34-.19.49-.13.16-.31.23-.55.23s-.43-.08-.57-.23c-.14-.16-.21-.36-.21-.61,0-.38.15-.73.44-1.05.29-.32.7-.57,1.23-.75.52-.18,1.11-.28,1.75-.28.97,0,1.68.26,2.14.77.46.51.69,1.32.67,2.43l-.02,3.89c0,.37-.02.76-.07,1.18l1.23-.07v.73h-2.47c-.03-.17-.08-.5-.12-.99-.84.84-1.75,1.26-2.71,1.26-.84,0-1.48-.19-1.93-.57Zm3.52-.67c.36-.17.72-.42,1.09-.77-.01-.17-.02-.47-.02-.88l.02-1.62c-.94.03-1.79.23-2.52.58-.74.35-1.11.89-1.11,1.62,0,.43.13.75.38.99.25.23.58.35.97.35.44,0,.84-.08,1.19-.25Z"/><path class="d" d="m95.5,37.17c.33,0,.57-.08.72-.25.14-.17.23-.38.26-.64.03-.26.04-.67.04-1.22v-3.94c0-.48.02-.86.07-1.12l-1.23.05v-.71h.54c.44,0,.75-.04.95-.11.2-.07.38-.19.55-.35h.5c.05.45.07,1.02.09,1.71.29-.47.7-.89,1.24-1.26s1.09-.55,1.67-.55c.35,0,.63.09.86.28.23.18.35.46.35.81,0,.18-.07.37-.22.55-.14.18-.35.28-.61.28s-.46-.1-.62-.29c-.16-.19-.22-.42-.19-.68-.44-.01-.88.16-1.32.5s-.82.81-1.13,1.38l.02,4.25c0,.52-.02.91-.07,1.18l1.09-.05v.71h-3.54v-.52Z"/><path class="d" d="m105.98,37.4c-.64-.37-1.14-.91-1.51-1.61-.37-.7-.55-1.5-.55-2.41,0-.81.18-1.56.55-2.27.37-.71.88-1.28,1.55-1.7.66-.43,1.41-.64,2.25-.64.66,0,1.25.14,1.78.43.53.29.95.72,1.26,1.29s.47,1.27.47,2.1l-6.08.1c-.01,1.38.22,2.46.68,3.23.47.77,1.19,1.16,2.17,1.16.53,0,1.07-.14,1.63-.42.56-.28.99-.62,1.29-1.02l.41.35c-.44.67-1,1.16-1.7,1.49-.7.32-1.38.48-2.05.48-.79,0-1.51-.19-2.15-.56Zm4.17-5.43c0-.69-.16-1.28-.47-1.78-.31-.5-.78-.74-1.4-.74-1.43,0-2.28.84-2.54,2.52h4.41Z"/><path class="d" d="m114.41,37.17c.33,0,.57-.08.72-.25.14-.17.23-.38.25-.62.02-.25.04-.66.05-1.24l.02-3.94c0-.48.02-.86.07-1.12l-1.23.07v-.73c.68,0,1.15-.04,1.4-.11.25-.07.47-.19.64-.35h.5c.02.22.05.57.07,1.05.39-.35.84-.62,1.34-.84.5-.21.99-.32,1.48-.32,1,0,1.73.31,2.19.94.46.63.69,1.6.69,2.93v3.21c0,.52-.02.91-.07,1.18l1.09-.05v.71h-3.53v-.52c.33,0,.57-.08.72-.25s.23-.38.26-.64c.03-.26.04-.67.04-1.22v-2.42c-.01-.99-.17-1.74-.48-2.24s-.8-.75-1.47-.75c-.41,0-.83.1-1.24.31-.41.21-.75.48-1.01.81.01.13.02.35.02.67l-.02,4.41c0,.52-.02.91-.07,1.18l1.09-.05v.71h-3.52v-.52Z"/><path class="d" d="m134.22,37.74c-.55-.15-1.03-.37-1.44-.66l.09.74h-.9l-.1-3.68h.67c.06.99.4,1.75,1.02,2.29.62.54,1.41.8,2.37.8.7,0,1.29-.19,1.77-.58.48-.39.72-.91.72-1.58,0-.5-.13-.92-.41-1.27-.27-.35-.61-.65-1-.88-.4-.24-.94-.51-1.62-.82-.77-.37-1.39-.69-1.84-.97s-.84-.64-1.17-1.1-.48-1.02-.48-1.69c0-.46.11-.92.32-1.38.21-.46.58-.85,1.11-1.17.52-.32,1.22-.48,2.08-.48.52,0,1.04.07,1.56.2s1,.36,1.44.68l-.07-.74h.88v3.8h-.62c-.06-.91-.35-1.68-.87-2.31-.52-.63-1.26-.94-2.2-.94-.69,0-1.23.19-1.62.58-.39.39-.59.87-.59,1.44,0,.46.13.86.4,1.19.26.33.59.61.97.83.38.22.92.49,1.61.81.78.36,1.41.68,1.89.97.48.29.88.67,1.22,1.13s.5,1.04.5,1.72-.16,1.22-.48,1.71c-.32.5-.78.88-1.39,1.16-.61.28-1.34.42-2.18.42-.54,0-1.09-.08-1.63-.22Z"/><path class="d" d="m143.89,37.12c-.46-.56-.68-1.54-.68-2.92v-3.08c0-.48.02-.86.07-1.12l-1.19.05v-.71h.54c.45,0,.79-.04,1.02-.12.23-.08.43-.2.59-.35h.5v5.27c0,1.01.14,1.76.42,2.23.28.47.75.71,1.41.71.43,0,.84-.13,1.25-.38.41-.25.74-.57.99-.95v-4.44c0-.54.03-.98.09-1.31l-1.24.05v-.71h.54c.45,0,.79-.04,1.02-.12s.43-.2.59-.35h.5l-.02,6.53c0,.67-.02,1.21-.07,1.62l1.24-.07v.73h-2.47c-.06-.36-.1-.7-.12-1.04-.38.38-.82.69-1.33.94-.51.25-1,.37-1.49.37-.98,0-1.7-.28-2.15-.85Z"/><path class="d" d="m154.7,34.78l.03-5.01-1.33.02v-.74c.55-.01,1.02-.26,1.41-.75.39-.49.67-1.05.86-1.67h.59v2.42h2.9v.67l-2.9.03c-.01,1.76-.02,2.98-.03,3.66,0,.68,0,1.06,0,1.14,0,.82.1,1.43.29,1.82.2.4.54.6,1.02.6.3,0,.6-.09.89-.28.29-.18.55-.44.77-.76l.47.38c-.45.67-.89,1.11-1.33,1.32-.44.21-.86.32-1.28.32-1.58,0-2.36-1.06-2.35-3.18Z"/><path class="d" d="m161.41,37.17c.33,0,.58-.08.73-.25.15-.17.24-.38.27-.65.03-.26.04-.67.04-1.21v-8.17c0-.44.02-.81.05-1.12l-1.23.07v-.73c.69,0,1.18-.04,1.48-.12s.52-.2.68-.35h.5v5.27c.4-.33.86-.61,1.37-.82.51-.21,1-.32,1.47-.32.99,0,1.71.31,2.16.93s.68,1.6.69,2.94l.02,3.21c0,.52-.02.91-.07,1.18l1.09-.05v.71h-3.53v-.52c.33,0,.57-.08.72-.25.14-.17.23-.38.26-.64s.04-.67.04-1.22v-2.42c0-.99-.16-1.73-.47-2.22-.31-.49-.8-.73-1.47-.73-.43,0-.85.1-1.27.3-.42.2-.76.46-1.01.77v5.1c0,.45-.03.84-.09,1.18l1.09-.05v.71h-3.52v-.52Z"/><path class="d" d="m175.05,37.4c-.64-.37-1.14-.91-1.51-1.61-.37-.7-.55-1.5-.55-2.41,0-.81.18-1.56.55-2.27.37-.71.88-1.28,1.55-1.7s1.41-.64,2.25-.64c.66,0,1.25.14,1.78.43.53.29.95.72,1.26,1.29.31.57.47,1.27.47,2.1l-6.08.1c-.01,1.38.22,2.46.68,3.23.47.77,1.19,1.16,2.17,1.16.53,0,1.07-.14,1.63-.42s.99-.62,1.29-1.02l.41.35c-.44.67-1,1.16-1.7,1.49s-1.38.48-2.05.48c-.79,0-1.51-.19-2.15-.56Zm4.17-5.43c0-.69-.16-1.28-.47-1.78-.31-.5-.78-.74-1.4-.74-1.43,0-2.28.84-2.54,2.52h4.41Z"/><path class="d" d="m183.47,37.17c.33,0,.57-.08.72-.25.14-.17.23-.38.26-.64.03-.26.04-.67.04-1.22v-3.94c0-.48.02-.86.07-1.12l-1.23.05v-.71h.54c.44,0,.75-.04.95-.11.2-.07.38-.19.55-.35h.5c.05.45.08,1.02.09,1.71.29-.47.7-.89,1.24-1.26.54-.37,1.09-.55,1.67-.55.35,0,.63.09.86.28s.35.46.35.81c0,.18-.07.37-.22.55-.14.18-.35.28-.61.28s-.46-.1-.62-.29-.22-.42-.19-.68c-.44-.01-.88.16-1.32.5s-.82.81-1.13,1.38l.02,4.25c0,.52-.02.91-.07,1.18l1.09-.05v.71h-3.54v-.52Z"/><path class="d" d="m191.8,37.17c.33,0,.57-.08.72-.25.14-.17.23-.38.26-.64.03-.26.04-.67.04-1.22v-8.17c0-.44.02-.81.05-1.12l-1.23.07v-.73c.69,0,1.18-.04,1.48-.12s.52-.2.68-.35h.5l.02,11.21c0,.45-.03.84-.09,1.18l1.09-.05v.71h-3.52v-.52Z"/><path class="d" d="m198.25,37.39c-.44-.38-.67-.88-.67-1.49,0-.67.27-1.23.8-1.69.54-.46,1.21-.8,2.02-1.03.81-.22,1.63-.33,2.44-.32v-1.07c0-.75-.11-1.33-.33-1.75s-.69-.63-1.4-.63c-.36,0-.7.08-1.02.22-.32.15-.56.37-.71.67.15.16.23.38.23.66,0,.17-.06.34-.19.49-.13.16-.31.23-.55.23s-.43-.08-.57-.23c-.14-.16-.21-.36-.21-.61,0-.38.15-.73.44-1.05.29-.32.7-.57,1.23-.75s1.11-.28,1.75-.28c.97,0,1.68.26,2.14.77.46.51.69,1.32.67,2.43l-.02,3.89c0,.37-.02.76-.07,1.18l1.23-.07v.73h-2.47c-.04-.17-.08-.5-.12-.99-.84.84-1.75,1.26-2.71,1.26-.84,0-1.48-.19-1.93-.57Zm3.52-.67c.36-.17.72-.42,1.09-.77-.01-.17-.02-.47-.02-.88l.02-1.62c-.94.03-1.79.23-2.52.58s-1.11.89-1.11,1.62c0,.43.13.75.38.99.25.23.58.35.97.35.44,0,.83-.08,1.19-.25Z"/><path class="d" d="m207.77,37.17c.33,0,.57-.08.72-.25.14-.17.23-.38.25-.62.02-.25.04-.66.05-1.24l.02-3.94c0-.48.02-.86.07-1.12l-1.23.07v-.73c.68,0,1.15-.04,1.4-.11.25-.07.47-.19.64-.35h.5c.02.22.05.57.07,1.05.39-.35.84-.62,1.34-.84.5-.21.99-.32,1.48-.32,1,0,1.73.31,2.19.94.46.63.69,1.6.69,2.93v3.21c0,.52-.02.91-.07,1.18l1.09-.05v.71h-3.53v-.52c.33,0,.57-.08.72-.25.14-.17.23-.38.26-.64.03-.26.04-.67.04-1.22v-2.42c-.01-.99-.17-1.74-.48-2.24-.31-.5-.8-.75-1.47-.75-.41,0-.83.1-1.24.31-.41.21-.75.48-1.01.81.01.13.02.35.02.67l-.02,4.41c0,.52-.02.91-.07,1.18l1.09-.05v.71h-3.52v-.52Z"/><path class="d" d="m221.12,37.43c-.56-.36-1.01-.86-1.33-1.52-.32-.66-.48-1.42-.48-2.3,0-.92.19-1.75.57-2.49.38-.74.91-1.31,1.58-1.73.67-.42,1.44-.62,2.29-.62.36,0,.72.05,1.1.15.37.1.68.21.92.34v-2.37c0-.44.02-.81.05-1.12l-1.23.07v-.73c.68,0,1.17-.04,1.46-.12s.52-.2.68-.35h.5v11.21c0,.37-.02.76-.07,1.18l1.23-.07v.73h-2.47c-.06-.31-.1-.61-.12-.9-.33.37-.74.66-1.22.86-.48.21-.99.31-1.55.31-.71,0-1.35-.18-1.92-.54Zm3.67-.63c.39-.21.71-.49.98-.82-.01-.18-.02-.5-.02-.95l.02-4.98c-.54-.4-1.18-.6-1.92-.6-.83,0-1.5.34-2,1.03-.51.69-.76,1.59-.76,2.72s.22,2.12.67,2.84c.45.72,1.08,1.08,1.9,1.08.37,0,.75-.11,1.13-.32Z"/></g><path class="d" d="m49.16,38.67c-1.54.83-3.04,1.56-4.62,2.01-.66.18-1.51.57-1.79-.34-.32-.91.71-.94,1.26-1.12,3.43-1.12,6.53-2.72,8.77-5.59,2.22-2.84,3-6.11,2.82-9.66-.05-.91-.43-1.38-1.46-1.38-2.84-.05-5.54.46-8.01,1.94-2.01,1.21-3.5,2.72-3.98,5.2-.55,2.89-2.1,5.4-3.84,7.78-.32.43-.71,1.05-1.35.51-.62-.5-.16-1.01.18-1.46,2.66-3.5,4.37-7.32,4.1-11.81-.28-5.33-2.89-9.43-6.78-13.09-2.79,2.45-4.6,5.38-5.31,8.95-.71,3.55-.12,6.92,1.62,10.09.27.5.46,1.01.73,1.54.21.44.21.87-.27,1.12-.5.28-.83-.02-1.07-.43-.37-.62-.73-1.28-1.05-1.95-2.49-5.26-7.76-8.42-13.49-8.06-1.67.11-2.01.44-2.15,2.11-.23,2.89.55,5.5,2.04,7.94.28.5.94,1.07.18,1.56-.71.44-1.12-.18-1.44-.71-1.95-3.21-2.98-6.61-2.06-10.44.34-1.38,1.12-1.83,2.38-1.94,4.65-.39,8.77.82,12.3,3.98.16.16.34.28.62.55-.02-1.85-.16-3.57.12-5.33.71-4.15,2.88-7.39,5.88-10.21.62-.6,1.23-.57,1.83-.02,4.01,3.6,6.87,7.83,7.39,13.37.02.39.05.78.43,1.12,1.33-.94,2.65-1.94,4.17-2.56,2.61-1.07,5.31-1.26,8.06-1.12,1.28.05,1.56.87,1.67,1.9.46,5.22-.89,9.82-4.81,13.49-.16.16-.37.27-.51.37.34.67.94.66,1.38.87,2.59,1.07,4.62,2.73,5.88,5.27.34.71.43,1.33-.18,1.9-3.68,3.53-7.83,6.11-13.14,6.09-3.76-.02-6.84-1.79-9.61-4.17-1.85-1.6-3.6-3.28-5.49-4.83-6.23-5.2-13.3-3.48-18.43,1.49-.78.76-.21,1.23.23,1.76,3.76,4.42,9.32,5.79,14.77,3.66.94-.37,1.79-.83,2.68-1.31.46-.23.94-.44,1.28.11.37.6-.07.94-.55,1.26-6.29,4.17-14.54,2.98-19.48-2.82-1.79-2.11-1.79-2.17.27-4.05,4.26-3.87,9.06-5.82,14.83-4.17,2.93.83,5.22,2.72,7.42,4.72,1.88,1.72,3.73,3.55,5.89,4.9,4.31,2.68,8.66,2.4,13.03.16,1.6-.82,2.98-1.95,4.33-3.11.43-.37.67-.73.44-1.35-.96-2.54-5.49-5.15-8.15-4.71Z"/></svg>