<?xml version="1.0" encoding="utf-8"?>
<!-- Generator: Adobe Illustrator 27.6.1, SVG Export Plug-In . SVG Version: 6.00 Build 0)  -->
<svg version="1.1" id="a" xmlns="http://www.w3.org/2000/svg" xmlns:xlink="http://www.w3.org/1999/xlink" x="0px" y="0px"
	 viewBox="0 0 240 64" style="enable-background:new 0 0 240 64;" xml:space="preserve">
<style type="text/css">
	.st0{fill:#1A1F1C;}
</style>
<g>
	<path class="st0" d="M72.8,37.1c0.4,0,0.7-0.1,0.9-0.3s0.3-0.4,0.3-0.6s0-0.7,0-1.2v-7.5c0-0.5,0-0.9,0.1-1.2l-1.2,0.1v-0.8h3.9
		v0.6c-0.4,0-0.7,0.1-0.9,0.3s-0.3,0.4-0.3,0.6c0,0.2,0,0.6,0,1.2v2.8h1.3l2.2-3.4c0.4-0.6,0.8-1.1,1.2-1.5l-1.1,0v-0.7h3.7v0.6
		c-0.5,0-1,0.1-1.3,0.3c-0.4,0.1-0.7,0.4-1.1,0.7c-0.3,0.3-0.7,0.8-1.1,1.4l-1.7,2.7c0.2,0.2,0.5,0.3,0.7,0.5
		c0.2,0.2,0.3,0.4,0.5,0.6s0.2,0.3,0.3,0.4l1.9,2.6c0.4,0.6,0.8,1,1.1,1.2c0.3,0.3,0.5,0.4,0.7,0.5c0.2,0.1,0.4,0.1,0.7,0.1v0.6
		h-2.1c-0.3,0-0.9-0.6-1.8-1.7l-2.1-2.8c-0.3-0.4-0.5-0.7-0.7-0.9c-0.2-0.2-0.4-0.4-0.6-0.5l-0.8,0v3.8c0,0.6,0,1.1-0.1,1.4l1.2-0.1
		v0.8h-3.9L72.8,37.1L72.8,37.1z"/>
	<path class="st0" d="M86,37.4c-0.4-0.4-0.7-0.9-0.7-1.5c0-0.7,0.3-1.2,0.8-1.7c0.5-0.5,1.2-0.8,2-1c0.8-0.2,1.6-0.3,2.4-0.3v-1.1
		c0-0.8-0.1-1.3-0.3-1.8s-0.7-0.6-1.4-0.6c-0.4,0-0.7,0.1-1,0.2c-0.3,0.1-0.6,0.4-0.7,0.7c0.2,0.2,0.2,0.4,0.2,0.7
		c0,0.2-0.1,0.3-0.2,0.5c-0.1,0.2-0.3,0.2-0.6,0.2s-0.4-0.1-0.6-0.2c-0.1-0.2-0.2-0.4-0.2-0.6c0-0.4,0.2-0.7,0.4-1s0.7-0.6,1.2-0.8
		c0.5-0.2,1.1-0.3,1.8-0.3c1,0,1.7,0.3,2.1,0.8s0.7,1.3,0.7,2.4l0,3.9c0,0.4,0,0.8-0.1,1.2l1.2-0.1v0.7h-2.5c0-0.2-0.1-0.5-0.1-1
		c-0.8,0.8-1.8,1.3-2.7,1.3C87.1,38,86.4,37.8,86,37.4L86,37.4z M89.5,36.7c0.4-0.2,0.7-0.4,1.1-0.8c0-0.2,0-0.5,0-0.9l0-1.6
		c-0.9,0-1.8,0.2-2.5,0.6c-0.7,0.3-1.1,0.9-1.1,1.6c0,0.4,0.1,0.8,0.4,1c0.2,0.2,0.6,0.3,1,0.3C88.8,37,89.2,36.9,89.5,36.7
		L89.5,36.7z"/>
	<path class="st0" d="M95.5,37.2c0.3,0,0.6-0.1,0.7-0.2c0.1-0.2,0.2-0.4,0.3-0.6s0-0.7,0-1.2v-3.9c0-0.5,0-0.9,0.1-1.1l-1.2,0v-0.7
		h0.5c0.4,0,0.8,0,0.9-0.1s0.4-0.2,0.6-0.4h0.5c0.1,0.5,0.1,1,0.1,1.7c0.3-0.5,0.7-0.9,1.2-1.3s1.1-0.5,1.7-0.5
		c0.3,0,0.6,0.1,0.9,0.3c0.2,0.2,0.3,0.5,0.3,0.8c0,0.2-0.1,0.4-0.2,0.5c-0.1,0.2-0.3,0.3-0.6,0.3s-0.5-0.1-0.6-0.3
		s-0.2-0.4-0.2-0.7c-0.4,0-0.9,0.2-1.3,0.5S98.3,31,98,31.6l0,4.2c0,0.5,0,0.9-0.1,1.2l1.1,0v0.7h-3.5L95.5,37.2L95.5,37.2z"/>
	<path class="st0" d="M106,37.4c-0.6-0.4-1.1-0.9-1.5-1.6s-0.6-1.5-0.6-2.4c0-0.8,0.2-1.6,0.6-2.3c0.4-0.7,0.9-1.3,1.6-1.7
		c0.7-0.4,1.4-0.6,2.2-0.6c0.7,0,1.2,0.1,1.8,0.4s0.9,0.7,1.3,1.3s0.5,1.3,0.5,2.1l-6.1,0.1c0,1.4,0.2,2.5,0.7,3.2
		c0.5,0.8,1.2,1.2,2.2,1.2c0.5,0,1.1-0.1,1.6-0.4s1-0.6,1.3-1l0.4,0.3c-0.4,0.7-1,1.2-1.7,1.5c-0.7,0.3-1.4,0.5-2.1,0.5
		C107.3,38,106.6,37.8,106,37.4z M110.2,32c0-0.7-0.2-1.3-0.5-1.8s-0.8-0.7-1.4-0.7c-1.4,0-2.3,0.8-2.5,2.5
		C105.7,32,110.1,32,110.2,32z"/>
	<path class="st0" d="M114.4,37.2c0.3,0,0.6-0.1,0.7-0.2c0.1-0.2,0.2-0.4,0.2-0.6c0-0.2,0-0.7,0.1-1.2l0-3.9c0-0.5,0-0.9,0.1-1.1
		l-1.2,0.1v-0.7c0.7,0,1.2,0,1.4-0.1s0.5-0.2,0.6-0.4h0.5c0,0.2,0.1,0.6,0.1,1c0.4-0.4,0.8-0.6,1.3-0.8c0.5-0.2,1-0.3,1.5-0.3
		c1,0,1.7,0.3,2.2,0.9c0.5,0.6,0.7,1.6,0.7,2.9v3.2c0,0.5,0,0.9-0.1,1.2l1.1,0v0.7h-3.5v-0.5c0.3,0,0.6-0.1,0.7-0.2s0.2-0.4,0.3-0.6
		s0-0.7,0-1.2v-2.4c0-1-0.2-1.7-0.5-2.2s-0.8-0.8-1.5-0.8c-0.4,0-0.8,0.1-1.2,0.3c-0.4,0.2-0.8,0.5-1,0.8c0,0.1,0,0.4,0,0.7l0,4.4
		c0,0.5,0,0.9-0.1,1.2l1.1,0v0.7h-3.5C114.4,37.7,114.4,37.2,114.4,37.2z"/>
	<path class="st0" d="M134.2,37.7c-0.6-0.2-1-0.4-1.4-0.7l0.1,0.7H132l-0.1-3.7h0.7c0.1,1,0.4,1.8,1,2.3c0.6,0.5,1.4,0.8,2.4,0.8
		c0.7,0,1.3-0.2,1.8-0.6c0.5-0.4,0.7-0.9,0.7-1.6c0-0.5-0.1-0.9-0.4-1.3c-0.3-0.3-0.6-0.7-1-0.9c-0.4-0.2-0.9-0.5-1.6-0.8
		c-0.8-0.4-1.4-0.7-1.8-1s-0.8-0.6-1.2-1.1s-0.5-1-0.5-1.7c0-0.5,0.1-0.9,0.3-1.4s0.6-0.9,1.1-1.2c0.5-0.3,1.2-0.5,2.1-0.5
		c0.5,0,1,0.1,1.6,0.2s1,0.4,1.4,0.7l-0.1-0.7h0.9v3.8h-0.6c-0.1-0.9-0.4-1.7-0.9-2.3c-0.5-0.6-1.3-0.9-2.2-0.9
		c-0.7,0-1.2,0.2-1.6,0.6s-0.6,0.9-0.6,1.4c0,0.5,0.1,0.9,0.4,1.2c0.3,0.3,0.6,0.6,1,0.8s0.9,0.5,1.6,0.8c0.8,0.4,1.4,0.7,1.9,1
		c0.5,0.3,0.9,0.7,1.2,1.1s0.5,1,0.5,1.7s-0.2,1.2-0.5,1.7c-0.3,0.5-0.8,0.9-1.4,1.2s-1.3,0.4-2.2,0.4
		C135.3,38,134.8,37.9,134.2,37.7L134.2,37.7z"/>
	<path class="st0" d="M143.9,37.1c-0.5-0.6-0.7-1.5-0.7-2.9v-3.1c0-0.5,0-0.9,0.1-1.1l-1.2,0v-0.7h0.5c0.4,0,0.8,0,1-0.1
		c0.2-0.1,0.4-0.2,0.6-0.4h0.5v5.3c0,1,0.1,1.8,0.4,2.2s0.8,0.7,1.4,0.7c0.4,0,0.8-0.1,1.2-0.4s0.7-0.6,1-1v-4.4c0-0.5,0-1,0.1-1.3
		l-1.2,0v-0.7h0.5c0.4,0,0.8,0,1-0.1s0.4-0.2,0.6-0.4h0.5l0,6.5c0,0.7,0,1.2-0.1,1.6l1.2-0.1v0.7H149c-0.1-0.4-0.1-0.7-0.1-1
		c-0.4,0.4-0.8,0.7-1.3,0.9s-1,0.4-1.5,0.4C145.1,37.9,144.3,37.7,143.9,37.1L143.9,37.1z"/>
	<path class="st0" d="M154.7,34.8l0-5l-1.3,0V29c0.6,0,1-0.3,1.4-0.8s0.7-1,0.9-1.7h0.6V29h2.9v0.7l-2.9,0c0,1.8,0,3,0,3.7
		c0,0.7,0,1.1,0,1.1c0,0.8,0.1,1.4,0.3,1.8c0.2,0.4,0.5,0.6,1,0.6c0.3,0,0.6-0.1,0.9-0.3c0.3-0.2,0.6-0.4,0.8-0.8l0.5,0.4
		c-0.4,0.7-0.9,1.1-1.3,1.3s-0.9,0.3-1.3,0.3C155.5,38,154.7,36.9,154.7,34.8L154.7,34.8z"/>
	<path class="st0" d="M161.4,37.2c0.3,0,0.6-0.1,0.7-0.2s0.2-0.4,0.3-0.7c0-0.3,0-0.7,0-1.2v-8.2c0-0.4,0-0.8,0.1-1.1l-1.2,0.1v-0.7
		c0.7,0,1.2,0,1.5-0.1s0.5-0.2,0.7-0.4h0.5v5.3c0.4-0.3,0.9-0.6,1.4-0.8s1-0.3,1.5-0.3c1,0,1.7,0.3,2.2,0.9s0.7,1.6,0.7,2.9l0,3.2
		c0,0.5,0,0.9-0.1,1.2l1.1,0v0.7h-3.5v-0.5c0.3,0,0.6-0.1,0.7-0.2c0.1-0.2,0.2-0.4,0.3-0.6s0-0.7,0-1.2v-2.4c0-1-0.2-1.7-0.5-2.2
		s-0.8-0.7-1.5-0.7c-0.4,0-0.9,0.1-1.3,0.3c-0.4,0.2-0.8,0.5-1,0.8v5.1c0,0.5,0,0.8-0.1,1.2l1.1,0v0.7h-3.5L161.4,37.2L161.4,37.2z"
		/>
	<path class="st0" d="M175.1,37.4c-0.6-0.4-1.1-0.9-1.5-1.6s-0.6-1.5-0.6-2.4c0-0.8,0.2-1.6,0.6-2.3c0.4-0.7,0.9-1.3,1.6-1.7
		s1.4-0.6,2.2-0.6c0.7,0,1.2,0.1,1.8,0.4s0.9,0.7,1.3,1.3c0.3,0.6,0.5,1.3,0.5,2.1l-6.1,0.1c0,1.4,0.2,2.5,0.7,3.2
		c0.5,0.8,1.2,1.2,2.2,1.2c0.5,0,1.1-0.1,1.6-0.4s1-0.6,1.3-1l0.4,0.3c-0.4,0.7-1,1.2-1.7,1.5s-1.4,0.5-2.1,0.5
		C176.4,38,175.7,37.8,175.1,37.4z M179.2,32c0-0.7-0.2-1.3-0.5-1.8s-0.8-0.7-1.4-0.7c-1.4,0-2.3,0.8-2.5,2.5H179.2L179.2,32z"/>
	<path class="st0" d="M183.5,37.2c0.3,0,0.6-0.1,0.7-0.2c0.1-0.2,0.2-0.4,0.3-0.6s0-0.7,0-1.2v-3.9c0-0.5,0-0.9,0.1-1.1l-1.2,0v-0.7
		h0.5c0.4,0,0.8,0,0.9-0.1s0.4-0.2,0.6-0.4h0.5c0.1,0.5,0.1,1,0.1,1.7c0.3-0.5,0.7-0.9,1.2-1.3c0.5-0.4,1.1-0.5,1.7-0.5
		c0.4,0,0.6,0.1,0.9,0.3s0.4,0.5,0.4,0.8c0,0.2-0.1,0.4-0.2,0.5c-0.1,0.2-0.4,0.3-0.6,0.3s-0.5-0.1-0.6-0.3s-0.2-0.4-0.2-0.7
		c-0.4,0-0.9,0.2-1.3,0.5s-0.8,0.8-1.1,1.4l0,4.2c0,0.5,0,0.9-0.1,1.2l1.1,0v0.7h-3.5L183.5,37.2L183.5,37.2z"/>
	<path class="st0" d="M191.8,37.2c0.3,0,0.6-0.1,0.7-0.2c0.1-0.2,0.2-0.4,0.3-0.6s0-0.7,0-1.2v-8.2c0-0.4,0-0.8,0.1-1.1l-1.2,0.1
		v-0.7c0.7,0,1.2,0,1.5-0.1s0.5-0.2,0.7-0.4h0.5l0,11.2c0,0.5,0,0.8-0.1,1.2l1.1,0v0.7h-3.5L191.8,37.2L191.8,37.2z"/>
	<path class="st0" d="M198.2,37.4c-0.4-0.4-0.7-0.9-0.7-1.5c0-0.7,0.3-1.2,0.8-1.7c0.5-0.5,1.2-0.8,2-1c0.8-0.2,1.6-0.3,2.4-0.3
		v-1.1c0-0.8-0.1-1.3-0.3-1.8s-0.7-0.6-1.4-0.6c-0.4,0-0.7,0.1-1,0.2c-0.3,0.1-0.6,0.4-0.7,0.7c0.1,0.2,0.2,0.4,0.2,0.7
		c0,0.2-0.1,0.3-0.2,0.5c-0.1,0.2-0.3,0.2-0.6,0.2s-0.4-0.1-0.6-0.2c-0.1-0.2-0.2-0.4-0.2-0.6c0-0.4,0.1-0.7,0.4-1
		c0.3-0.3,0.7-0.6,1.2-0.8s1.1-0.3,1.8-0.3c1,0,1.7,0.3,2.1,0.8s0.7,1.3,0.7,2.4l0,3.9c0,0.4,0,0.8-0.1,1.2l1.2-0.1v0.7H203
		c0-0.2-0.1-0.5-0.1-1c-0.8,0.8-1.8,1.3-2.7,1.3C199.3,38,198.7,37.8,198.2,37.4L198.2,37.4z M201.8,36.7c0.4-0.2,0.7-0.4,1.1-0.8
		c0-0.2,0-0.5,0-0.9l0-1.6c-0.9,0-1.8,0.2-2.5,0.6s-1.1,0.9-1.1,1.6c0,0.4,0.1,0.8,0.4,1c0.2,0.2,0.6,0.3,1,0.3
		C201,37,201.4,36.9,201.8,36.7L201.8,36.7z"/>
	<path class="st0" d="M207.8,37.2c0.3,0,0.6-0.1,0.7-0.2c0.1-0.2,0.2-0.4,0.2-0.6c0-0.2,0-0.7,0.1-1.2l0-3.9c0-0.5,0-0.9,0.1-1.1
		l-1.2,0.1v-0.7c0.7,0,1.1,0,1.4-0.1s0.5-0.2,0.6-0.4h0.5c0,0.2,0.1,0.6,0.1,1c0.4-0.4,0.8-0.6,1.3-0.8c0.5-0.2,1-0.3,1.5-0.3
		c1,0,1.7,0.3,2.2,0.9c0.5,0.6,0.7,1.6,0.7,2.9v3.2c0,0.5,0,0.9-0.1,1.2l1.1,0v0.7h-3.5v-0.5c0.3,0,0.6-0.1,0.7-0.2
		c0.1-0.2,0.2-0.4,0.3-0.6s0-0.7,0-1.2v-2.4c0-1-0.2-1.7-0.5-2.2s-0.8-0.8-1.5-0.8c-0.4,0-0.8,0.1-1.2,0.3s-0.8,0.5-1,0.8
		c0,0.1,0,0.4,0,0.7l0,4.4c0,0.5,0,0.9-0.1,1.2l1.1,0v0.7h-3.5L207.8,37.2L207.8,37.2z"/>
	<path class="st0" d="M221.1,37.4c-0.6-0.4-1-0.9-1.3-1.5s-0.5-1.4-0.5-2.3c0-0.9,0.2-1.8,0.6-2.5s0.9-1.3,1.6-1.7s1.4-0.6,2.3-0.6
		c0.4,0,0.7,0,1.1,0.1c0.4,0.1,0.7,0.2,0.9,0.3v-2.4c0-0.4,0-0.8,0.1-1.1l-1.2,0.1v-0.7c0.7,0,1.2,0,1.5-0.1s0.5-0.2,0.7-0.4h0.5
		v11.2c0,0.4,0,0.8-0.1,1.2l1.2-0.1v0.7h-2.5c-0.1-0.3-0.1-0.6-0.1-0.9c-0.3,0.4-0.7,0.7-1.2,0.9c-0.5,0.2-1,0.3-1.6,0.3
		C222.3,38,221.7,37.8,221.1,37.4L221.1,37.4z M224.8,36.8c0.4-0.2,0.7-0.5,1-0.8c0-0.2,0-0.5,0-1l0-5c-0.5-0.4-1.2-0.6-1.9-0.6
		c-0.8,0-1.5,0.3-2,1c-0.5,0.7-0.8,1.6-0.8,2.7s0.2,2.1,0.7,2.8s1.1,1.1,1.9,1.1C224,37.1,224.4,37,224.8,36.8z"/>
</g>
<path class="st0" d="M49.2,38.7c-1.5,0.8-3,1.6-4.6,2c-0.7,0.2-1.5,0.6-1.8-0.3c-0.3-0.9,0.7-0.9,1.3-1.1c3.4-1.1,6.5-2.7,8.8-5.6
	c2.2-2.8,3-6.1,2.8-9.7c0-0.9-0.4-1.4-1.5-1.4c-2.8,0-5.5,0.5-8,1.9c-2,1.2-3.5,2.7-4,5.2c-0.5,2.9-2.1,5.4-3.8,7.8
	c-0.3,0.4-0.7,1-1.3,0.5c-0.6-0.5-0.2-1,0.2-1.5c2.7-3.5,4.4-7.3,4.1-11.8c-0.3-5.3-2.9-9.4-6.8-13.1c-2.8,2.4-4.6,5.4-5.3,9
	c-0.7,3.5-0.1,6.9,1.6,10.1c0.3,0.5,0.5,1,0.7,1.5c0.2,0.4,0.2,0.9-0.3,1.1c-0.5,0.3-0.8,0-1.1-0.4c-0.4-0.6-0.7-1.3-1-2
	c-2.5-5.3-7.8-8.4-13.5-8.1c-1.7,0.1-2,0.4-2.1,2.1c-0.2,2.9,0.6,5.5,2,7.9c0.3,0.5,0.9,1.1,0.2,1.6c-0.7,0.4-1.1-0.2-1.4-0.7
	c-1.9-3.2-3-6.6-2.1-10.4c0.3-1.4,1.1-1.8,2.4-1.9c4.7-0.4,8.8,0.8,12.3,4c0.2,0.2,0.3,0.3,0.6,0.5c0-1.9-0.2-3.6,0.1-5.3
	c0.7-4.1,2.9-7.4,5.9-10.2c0.6-0.6,1.2-0.6,1.8,0c4,3.6,6.9,7.8,7.4,13.4c0,0.4,0,0.8,0.4,1.1c1.3-0.9,2.7-1.9,4.2-2.6
	c2.6-1.1,5.3-1.3,8.1-1.1c1.3,0,1.6,0.9,1.7,1.9c0.5,5.2-0.9,9.8-4.8,13.5c-0.2,0.2-0.4,0.3-0.5,0.4c0.3,0.7,0.9,0.7,1.4,0.9
	c2.6,1.1,4.6,2.7,5.9,5.3c0.3,0.7,0.4,1.3-0.2,1.9c-3.7,3.5-7.8,6.1-13.1,6.1c-3.8,0-6.8-1.8-9.6-4.2c-1.8-1.6-3.6-3.3-5.5-4.8
	c-6.2-5.2-13.3-3.5-18.4,1.5c-0.8,0.8-0.2,1.2,0.2,1.8c3.8,4.4,9.3,5.8,14.8,3.7c0.9-0.4,1.8-0.8,2.7-1.3c0.5-0.2,0.9-0.4,1.3,0.1
	c0.4,0.6-0.1,0.9-0.5,1.3c-6.3,4.2-14.5,3-19.5-2.8c-1.8-2.1-1.8-2.2,0.3-4c4.3-3.9,9.1-5.8,14.8-4.2c2.9,0.8,5.2,2.7,7.4,4.7
	c1.9,1.7,3.7,3.5,5.9,4.9c4.3,2.7,8.7,2.4,13,0.2c1.6-0.8,3-2,4.3-3.1c0.4-0.4,0.7-0.7,0.4-1.3C56.3,40.8,51.8,38.2,49.2,38.7
	L49.2,38.7z"/>
</svg>
